<svg xmlns="http://www.w3.org/2000/svg" width="465.269" height="103.347" viewBox="0 0 465.269 103.347"><defs><style>.a{fill:#004588;}.a,.c{fill-rule:evenodd;}.b{fill:#fff;}.c{fill:#bf0635;}</style></defs><g transform="translate(-68.876 -54.683)"><path class="a" d="M120.334,95.1c.766-16.272-8.069-26.251-19.274-26.251-10.03,0-18.089,9-18.089,23.393,0,14.963,9.069,22,18.974,22,7.239,0,15.72-4.825,17.738-15.3H104.8c-.3,2.05-1.482,3.6-3.085,3.6-3.2,0-3.621-3.921-3.621-7.443m0-8.992c0-3.027,1.127-5.649,3.439-5.649,2.2,0,3.736,2.7,3.736,5.649Z" transform="translate(30.913 31.075)"/><path class="a" d="M111.21,69.831H96.266v43.437h15.3V92.081c0-2.539,0-6.137,2.548-6.137,2.612,0,2.612,3.6,2.612,6.137v21.187h15.3V86.522c0-9.57-3.088-17.671-10.914-17.671-4.921,0-7.178,3.19-10.145,7.935h-.354" transform="translate(60.071 31.073)"/><path class="a" d="M148.985,71.615V69.158h-32.44V82.851h7.412l3.5-.574V82.6L115,109.65v2.943h33.21V98.773H139.5l-3.143.493v-.493l3.262-8.017" transform="translate(101.168 31.746)"/><path class="a" d="M171.029,69.831h-16.17v43.437H171.38V92.081c0-2.539,0-6.137,2.555-6.137,2.606,0,2.606,3.6,2.606,6.137v21.187h15.3V86.522c0-9.57-3.085-17.671-10.911-17.671-4.924,0-7.178,3.19-10.138,7.935h-.361" transform="translate(188.575 31.073)"/><path class="a" d="M167.853,124.846h15.632l.025-21.8,7.331,21.8H209.32L197.748,100.7l11.31-19.29H191.146l-6.991,18.355-1-2.242V63.571h-15.3" transform="translate(217.072 19.493)"/><path class="a" d="M143.62,87.09V78.335h1.13c2.376,0,5.4-.326,5.4,4.17,0,4.253-2.669,4.585-5.045,4.585m-17.939,38.034h25.5c7.83,0,16.368-4.34,16.368-17.013,0-7.443-3-11.511-8.877-14.634,6.527-3.755,7.459-6.958,7.459-12.358,0-12.792-12.118-17.674-18.153-17.674h-22.3ZM143.62,100.1h1.6c2.615,0,6.763-.086,6.763,5.071s-3.857,5.234-6.524,5.234H143.62Z" transform="translate(127.831 19.216)"/><path class="a" d="M163.916,113.266h16.4V69.832h-16.4l.476,5.154h-.358c-2.251-4.256-5.39-6.134-9.19-6.134-9.975,0-13.7,11.942-13.7,22.9,0,10.55,4.745,22.493,13.287,22.493,4.333,0,6.817-2.618,9.6-6.706h.358m-8.066-16.2c0-3.19,1.542-8.452,3.975-8.452s4.091,4.937,4.091,8.293-.766,9.2-3.675,9.2c-2.788,0-4.391-5.6-4.391-9.043" transform="translate(158.491 31.075)"/><path class="a" d="M68.876,125.122H89.453c13.111,0,22.48-11.617,22.48-29.936,0-22.659-11.5-31.74-26.51-31.74H68.876M85.129,78.46h1c5.936,0,9.551,7.973,9.551,16.643,0,8.095-4.145,14.791-9.551,14.791h-1Z" transform="translate(0 19.219)"/><path class="a" d="M110.007,77.093h13.644V63.739H110.007Zm-.827,47.387h15.3V81.043h-15.3Z" transform="translate(88.393 19.861)"/><path class="b" d="M195.679,99.592a39.892,39.892,0,0,1,6.342-15.631l-4.151-4.18a7.1,7.1,0,0,1-.051-10,6.989,6.989,0,0,1,9.928.061l4.09,4.113a39.165,39.165,0,0,1,15.739-6.661v-5.5a6.988,6.988,0,1,1,13.973,0v5.457a39.217,39.217,0,0,1,15.966,6.706l3.707-3.73a7,7,0,0,1,9.934-.057,7.109,7.109,0,0,1-.051,10l-3.778,3.8a39.822,39.822,0,0,1,6.345,15.624h4.356a7.033,7.033,0,1,1,0,14.066h-4.4a39.854,39.854,0,0,1-6.61,15.851l3.331,3.353a7.1,7.1,0,0,1,.045,10,6.985,6.985,0,0,1-9.924-.057l-3.4-3.417a39.26,39.26,0,0,1-15.522,6.38v5.151a6.988,6.988,0,1,1-13.973,0v-5.189a39.168,39.168,0,0,1-15.289-6.342l-3.781,3.8a6.992,6.992,0,0,1-9.937.054,7.1,7.1,0,0,1,.057-10l3.714-3.739a39.713,39.713,0,0,1-6.619-15.857l-.377.006h-5.85a7.033,7.033,0,1,1,0-14.066h5.85" transform="translate(249.058 0)"/><path class="c" d="M209,101.474a23.6,23.6,0,0,1,4.758-11.786l8.388,8.42a12.083,12.083,0,0,0-1.338,3.382m-3.091-15.844a23.271,23.271,0,0,1,11.208-4.882l.016,11.99a11.565,11.565,0,0,0-2.858,1.3Zm16.863-5.023a23.29,23.29,0,0,1,12.546,5.183l-8.35,8.382a11.6,11.6,0,0,0-4.183-1.708Zm16.457,9.26a23.551,23.551,0,0,1,4.614,11.658l-11.812-.016a11.823,11.823,0,0,0-1.217-3.193Zm4.563,17.307a23.591,23.591,0,0,1-4.87,11.614l-8.369-8.4a11.7,11.7,0,0,0,1.383-3.225ZM246.738,122.8a23.293,23.293,0,0,1-12.1,4.863l-.01-11.856a11.76,11.76,0,0,0,3.72-1.434Zm-17.744,4.739a23.223,23.223,0,0,1-10.879-4.585l8.411-8.449a11.928,11.928,0,0,0,2.452,1.044ZM214.075,119a23.581,23.581,0,0,1-5.032-11.869l11.859.019a11.758,11.758,0,0,0,1.52,3.468ZM196.6,108.193h-8.385c-2.6,0-4.707-1.763-4.707-3.937s2.111-3.934,4.707-3.934h8.363a36.19,36.19,0,0,1,7.555-18.632l-5.684-5.7c-1.839-1.849-2.088-4.6-.562-6.134s4.257-1.287,6.1.568l5.633,5.671a35.643,35.643,0,0,1,18.721-7.919L228.31,60.5c0-2.615,1.75-4.735,3.905-4.735s3.908,2.12,3.908,4.735v7.657a35.63,35.63,0,0,1,18.942,7.954l5.234-5.3c1.836-1.849,4.563-2.1,6.093-.568s1.271,4.285-.562,6.134l-5.3,5.333a36.12,36.12,0,0,1,7.545,18.619H275c2.6,0,4.7,1.763,4.7,3.934s-2.107,3.937-4.7,3.937h-6.945A36.167,36.167,0,0,1,260.2,127l5.141,5.2c1.839,1.852,2.092,4.6.559,6.131s-4.253,1.29-6.093-.565l-5.189-5.224a35.669,35.669,0,0,1-18.479,7.6l-.019,7.731c0,2.622-1.75,4.742-3.908,4.742s-3.905-2.12-3.905-4.742v-7.753a35.659,35.659,0,0,1-18.262-7.561l-5.588,5.6c-1.836,1.849-4.563,2.1-6.089.565s-1.274-4.285.562-6.137l5.527-5.566a36.167,36.167,0,0,1-7.862-18.824" transform="translate(251.405 2.364)"/></g></svg>