<svg xmlns="http://www.w3.org/2000/svg" width="205.181" height="32.402" viewBox="0 0 205.181 32.402"><defs><style>.a{fill:#fff;}</style></defs><g transform="translate(50.245 8.333)"><path class="a" d="M158.321,1809.533v22.959h-5.508l-.833-3.518v-.046h-.139c-.787,2.453-3.518,4.119-6.851,4.119-6.3,0-10.461-4.813-10.461-12.035s4.166-12.034,10.461-12.034c3.333,0,6.064,1.666,6.851,4.073h.139l.833-3.518Zm-6.341,11.479c0-3.749-2.176-6.248-5.508-6.248-3.287,0-5.462,2.5-5.462,6.248s2.176,6.249,5.462,6.249C149.8,1827.262,151.98,1824.762,151.98,1821.012Z" transform="translate(-134.529 -1808.978)"/></g><path class="a" d="M75.11,1828.095c2.129,0,3.518-.926,3.518-2.315,0-.925-.463-1.481-1.759-1.759l-4.074-.787c-4.675-.972-7.175-3.287-7.175-6.851,0-4.4,3.888-7.359,9.628-7.406,4.4,0,8.008,2.453,9.073,6.064L79,1816.662a3.677,3.677,0,0,0-3.889-2.731c-1.9,0-3.1.879-3.1,2.222,0,1.018.694,1.712,2.268,1.991l4.074.833c4.351.833,6.665,3.1,6.665,6.48,0,4.537-3.934,7.591-9.767,7.591-5.462,0-9.582-2.916-10.23-7.267l5.416-.833C70.574,1826.845,72.472,1828.095,75.11,1828.095Z" transform="translate(-56.091 -1800.646)"/><path class="a" d="M112.508,1809.4v9.3c0,1.574,1.11,2.5,2.962,2.5h2.8v5.6h-4.235c-5,0-7.869-2.777-7.869-7.73V1809.4h-5.092v-5.555h5.092v-8.888h6.342v8.888h5.762v5.555Z" transform="translate(-70.715 -1794.96)"/><path class="a" d="M203.922,1817.68v14.812H197.58v-12.637c0-2.963-1.805-4.953-4.4-4.953-2.824,0-4.676,2.129-4.676,5.231v12.359h-6.341v-22.959h5.508l.833,3.61h.139c.787-2.5,3.564-4.166,6.99-4.166C200.635,1808.978,203.922,1812.449,203.922,1817.68Z" transform="translate(-103.604 -1800.646)"/><path class="a" d="M249.091,1815.327c0,7.222-4.166,12.035-10.461,12.035-3.333,0-6.064-1.666-6.8-4.12h-.139l-.833,3.565h-5.508V1794.96h6.341v12.406h.139c.741-2.407,3.471-4.073,6.8-4.073C244.925,1803.293,249.091,1808.106,249.091,1815.327Zm-6.48,0c0-3.749-2.176-6.249-5.462-6.249s-5.462,2.5-5.462,6.249,2.176,6.249,5.462,6.249S242.61,1819.077,242.61,1815.327Z" transform="translate(-121.117 -1794.96)"/><path class="a" d="M292.349,1809.912v22.959h-5.508l-.833-3.565h-.185c-.787,2.454-3.565,4.12-6.943,4.12-5,0-8.332-3.471-8.332-8.7v-14.812h6.341v12.637c0,2.963,1.759,4.953,4.4,4.953,2.87,0,4.721-2.083,4.721-5.231v-12.359Z" transform="translate(-139.451 -1801.024)"/><path class="a" d="M321.44,1826.807c-5,0-7.869-2.777-7.869-7.73V1794.96h6.342v23.746a2,2,0,0,0,2.222,2.129h3.379v5.972Z" transform="translate(-156.9 -1794.96)"/><path class="a" d="M359.066,1806.679c-6.22-5.461-13.714-2.822-13.714,5.128s13.714,16.688,13.714,16.688,13.714-8.708,13.714-16.687S364.528,1801.127,359.066,1806.679Z" transform="translate(-169.79 -1798.526)"/><path class="a" d="M350.074,1794.96h-8.407v8.407A17.65,17.65,0,0,1,350.074,1794.96Z" transform="translate(-168.296 -1794.96)"/><path class="a" d="M389.445,1803.367v-8.407h-8.407A17.651,17.651,0,0,1,389.445,1803.367Z" transform="translate(-184.264 -1794.96)"/><path class="a" d="M389.445,1834.331a17.65,17.65,0,0,1-8.407,8.407h8.407Z" transform="translate(-184.264 -1810.928)"/><path class="a" d="M341.667,1834.331v8.407h8.407A17.649,17.649,0,0,1,341.667,1834.331Z" transform="translate(-168.296 -1810.928)"/><g transform="translate(0 0)"><rect class="a" width="6.341" height="22.959" transform="translate(0.035 8.887)"/><rect class="a" width="6.411" height="5.913"/></g><g transform="translate(50.245 8.333)"><path class="a" d="M158.321,1809.533v22.959h-5.508l-.833-3.518v-.046h-.139c-.787,2.453-3.518,4.119-6.851,4.119-6.3,0-10.461-4.813-10.461-12.035s4.166-12.034,10.461-12.034c3.333,0,6.064,1.666,6.851,4.073h.139l.833-3.518Zm-6.341,11.479c0-3.749-2.176-6.248-5.508-6.248-3.287,0-5.462,2.5-5.462,6.248s2.176,6.249,5.462,6.249C149.8,1827.262,151.98,1824.762,151.98,1821.012Z" transform="translate(-134.529 -1808.978)"/></g><path class="a" d="M75.11,1828.095c2.129,0,3.518-.926,3.518-2.315,0-.925-.463-1.481-1.759-1.759l-4.074-.787c-4.675-.972-7.175-3.287-7.175-6.851,0-4.4,3.888-7.359,9.628-7.406,4.4,0,8.008,2.453,9.073,6.064L79,1816.662a3.677,3.677,0,0,0-3.889-2.731c-1.9,0-3.1.879-3.1,2.222,0,1.018.694,1.712,2.268,1.991l4.074.833c4.351.833,6.665,3.1,6.665,6.48,0,4.537-3.934,7.591-9.767,7.591-5.462,0-9.582-2.916-10.23-7.267l5.416-.833C70.574,1826.845,72.472,1828.095,75.11,1828.095Z" transform="translate(-56.091 -1800.646)"/><path class="a" d="M112.508,1809.4v9.3c0,1.574,1.11,2.5,2.962,2.5h2.8v5.6h-4.235c-5,0-7.869-2.777-7.869-7.73V1809.4h-5.092v-5.555h5.092v-8.888h6.342v8.888h5.762v5.555Z" transform="translate(-70.715 -1794.96)"/><path class="a" d="M203.922,1817.68v14.812H197.58v-12.637c0-2.963-1.805-4.953-4.4-4.953-2.824,0-4.676,2.129-4.676,5.231v12.359h-6.341v-22.959h5.508l.833,3.61h.139c.787-2.5,3.564-4.166,6.99-4.166C200.635,1808.978,203.922,1812.449,203.922,1817.68Z" transform="translate(-103.604 -1800.646)"/><path class="a" d="M249.091,1815.327c0,7.222-4.166,12.035-10.461,12.035-3.333,0-6.064-1.666-6.8-4.12h-.139l-.833,3.565h-5.508V1794.96h6.341v12.406h.139c.741-2.407,3.471-4.073,6.8-4.073C244.925,1803.293,249.091,1808.106,249.091,1815.327Zm-6.48,0c0-3.749-2.176-6.249-5.462-6.249s-5.462,2.5-5.462,6.249,2.176,6.249,5.462,6.249S242.61,1819.077,242.61,1815.327Z" transform="translate(-121.117 -1794.96)"/><path class="a" d="M292.349,1809.912v22.959h-5.508l-.833-3.565h-.185c-.787,2.454-3.565,4.12-6.943,4.12-5,0-8.332-3.471-8.332-8.7v-14.812h6.341v12.637c0,2.963,1.759,4.953,4.4,4.953,2.87,0,4.721-2.083,4.721-5.231v-12.359Z" transform="translate(-139.451 -1801.024)"/><path class="a" d="M321.44,1826.807c-5,0-7.869-2.777-7.869-7.73V1794.96h6.342v23.746a2,2,0,0,0,2.222,2.129h3.379v5.972Z" transform="translate(-156.9 -1794.96)"/><path class="a" d="M359.066,1806.679c-6.22-5.461-13.714-2.822-13.714,5.128s13.714,16.688,13.714,16.688,13.714-8.708,13.714-16.687S364.528,1801.127,359.066,1806.679Z" transform="translate(-169.79 -1798.526)"/><path class="a" d="M350.074,1794.96h-8.407v8.407A17.65,17.65,0,0,1,350.074,1794.96Z" transform="translate(-168.296 -1794.96)"/><path class="a" d="M389.445,1803.367v-8.407h-8.407A17.651,17.651,0,0,1,389.445,1803.367Z" transform="translate(-184.264 -1794.96)"/><path class="a" d="M389.445,1834.331a17.65,17.65,0,0,1-8.407,8.407h8.407Z" transform="translate(-184.264 -1810.928)"/><path class="a" d="M341.667,1834.331v8.407h8.407A17.649,17.649,0,0,1,341.667,1834.331Z" transform="translate(-168.296 -1810.928)"/><g transform="translate(0 0)"><rect class="a" width="6.341" height="22.959" transform="translate(0.035 8.887)"/><rect class="a" width="6.411" height="5.913"/></g></svg>