<svg xmlns="http://www.w3.org/2000/svg" xmlns:xlink="http://www.w3.org/1999/xlink" width="128.942" height="205.352" viewBox="0 0 128.942 205.352"><defs><style>.a{fill:none;}.b{clip-path:url(#a);}.c{fill:#1ca7e3;}.d{fill:#0060af;}.e{fill:#fff;}.f{fill:#77d0f7;}</style><clipPath id="a"><rect class="a" width="205.352" height="128.942" rx="4.148" transform="translate(128.942 0) rotate(90)"/></clipPath></defs><g class="b"><rect class="c" width="153.101" height="229.511" transform="translate(-12.079 -12.08)"/><path class="d" d="M165.15,200.755l-12.079-8.264V40.047L165.15,52.916Z" transform="translate(-24.129 -6.313)"/><g transform="translate(33.108 13.283)"><path class="d" d="M39.3,72.052c0,9.528,2.8,19.2,7.441,28.7a3.807,3.807,0,0,1,1.075-.168c2.254,0,3.769,1.681,3.769,4.179a4.432,4.432,0,0,1-1.048,3.035c25.306,43.211,84.6,80.866,84.6,80.866V36.22C96.973-2.58,39.3,16.29,39.3,72.052Z" transform="translate(-39.303 -15.769)"/></g><g transform="translate(65.164 32.703)"><path class="e" d="M79.759,47.3a2.27,2.27,0,0,1,.2-.478,4.895,4.895,0,0,0,0-4.611,2.273,2.273,0,0,1-.2-.478.431.431,0,0,1,.227-.286.409.409,0,0,1,.161-.024c.136.019.219.053.479.58a5.622,5.622,0,0,1,0,5.03c-.26.527-.344.561-.48.58a.408.408,0,0,1-.16-.024.439.439,0,0,1-.226-.277Z" transform="translate(-77.736 -39.233)"/><path class="e" d="M84.778,39.118a.548.548,0,0,1,.174-.249.409.409,0,0,1,.411.021,3.538,3.538,0,0,1,.3.51,10.585,10.585,0,0,1,1.028,3.23,11.519,11.519,0,0,1,0,2.942A10.574,10.574,0,0,1,85.664,48.8a3.342,3.342,0,0,1-.3.511.41.41,0,0,1-.408.019.474.474,0,0,1-.169-.268c.026-.075.123-.3.259-.575a9.8,9.8,0,0,0,0-8.779A5.9,5.9,0,0,1,84.778,39.118Z" transform="translate(-78.528 -38.823)"/><path class="e" d="M82.285,48.163a.2.2,0,0,1,.007-.052c.021-.061.142-.323.272-.587a7.177,7.177,0,0,0,.756-3.179c0-.233-.011-.436-.03-.639a6.919,6.919,0,0,0-.765-2.691,2.052,2.052,0,0,1-.238-.6c0-.035.012-.069.077-.16a.316.316,0,0,1,.226-.114.352.352,0,0,1,.269.072,8.146,8.146,0,0,1,.767,1.635,7.933,7.933,0,0,1,.393,2.466,8.068,8.068,0,0,1-.655,3.177c-.436,1.025-.649,1.06-.83,1.007a.382.382,0,0,1-.247-.332Z" transform="translate(-78.135 -39.03)"/><path class="e" d="M77.358,46.422a.959.959,0,0,1,.177-.4,2.288,2.288,0,0,0,0-2.6.956.956,0,0,1-.178-.4.49.49,0,0,1,.213-.318c.072-.029.268-.11.543.315a3.2,3.2,0,0,1,0,3.4c-.275.426-.471.345-.544.316a.474.474,0,0,1-.2-.25Z" transform="translate(-77.358 -39.431)"/></g><g transform="translate(65.42 47.127)"><path class="f" d="M78.546,56.393a.442.442,0,1,1-.443-.447A.439.439,0,0,1,78.546,56.393Zm-.033,4.234h-.706V57.082h.706Z" transform="translate(-77.662 -55.946)"/><path class="f" d="M82.36,58.177a1.905,1.905,0,0,0-1-.3c-.4,0-.679.158-.679.425s.307.339.732.411l.2.033c.633.1,1.129.374,1.129.991,0,.783-.688,1.156-1.451,1.156a2.472,2.472,0,0,1-1.494-.463l.367-.57a1.876,1.876,0,0,0,1.13.382c.393,0,.7-.154.7-.428,0-.246-.258-.337-.751-.415l-.226-.035c-.625-.1-1.081-.375-1.081-1.016,0-.739.658-1.124,1.413-1.124a2.5,2.5,0,0,1,1.355.377Z" transform="translate(-77.998 -56.147)"/><path class="f" d="M86.905,57.956h-1.1V60.84H85.1V57.956H84V57.3h2.9Z" transform="translate(-78.661 -56.159)"/><path class="f" d="M91.21,60.84h-.755l-.309-.825H88.634l-.308.825h-.737l1.38-3.545h.861Zm-2.333-1.477H89.9l-.511-1.37Z" transform="translate(-79.227 -56.159)"/><path class="f" d="M95.95,60.84h-.663l-1.8-2.367,0,2.367H92.78V57.3h.66l1.8,2.368V57.3h.708Z" transform="translate(-80.045 -56.159)"/><path class="f" d="M99.3,57.3c.826,0,1.344.307,1.344.982a.79.79,0,0,1-.514.752.852.852,0,0,1,.59.8c0,.681-.484,1.015-1.334,1.015H97.85V57.3Zm-.742.623v.827h.724c.352,0,.625-.073.625-.418s-.278-.409-.628-.409Zm0,1.448v.851l.793,0c.39,0,.636-.091.636-.43s-.246-.423-.636-.423Z" transform="translate(-80.844 -56.159)"/><path class="f" d="M105.367,59.425a1.528,1.528,0,0,1-3.054,0V57.3h.709v2.094a.818.818,0,1,0,1.636,0V57.3h.709Z" transform="translate(-81.548 -56.159)"/><path class="f" d="M109.778,60.84H107.2V57.3h.706v2.884h1.874Z" transform="translate(-82.318 -56.159)"/><path class="f" d="M111.318,57.175l-.355,1.509h-.557l.17-1.509Z" transform="translate(-82.824 -56.14)"/><path class="f" d="M115.6,59.425a1.528,1.528,0,0,1-3.054,0V57.3h.709v2.094a.818.818,0,1,0,1.635,0V57.3h.709Z" transform="translate(-83.161 -56.159)"/><path class="f" d="M120.6,60.84h-.663l-1.8-2.367,0,2.367h-.706V57.3h.661l1.8,2.368V57.3h.708Z" transform="translate(-83.931 -56.159)"/><path class="f" d="M78.867,66.464H78.54v1.458h-.706V64.377h.706v1.435h.334l1.173-1.435h.886l-1.487,1.729,1.6,1.815h-.917Z" transform="translate(-77.689 -57.275)"/><path class="f" d="M85.732,67.922h-.755l-.309-.825H83.156l-.308.825h-.737l1.38-3.545h.861ZM83.4,66.445h1.025l-.511-1.37Z" transform="translate(-78.363 -57.275)"/><path class="f" d="M88.8,64.377c.847,0,1.3.4,1.3,1.079A1.053,1.053,0,0,1,89.014,66.5l1.092,1.42H89.25l-1.034-1.41h-.207v1.41H87.3V64.377Zm-.792.651V65.9h.78c.384,0,.585-.142.585-.441s-.21-.428-.585-.428Z" transform="translate(-79.182 -57.275)"/><path class="f" d="M94.255,65.038h-1.1v2.883H92.45V65.038h-1.1v-.661h2.9Z" transform="translate(-79.82 -57.275)"/><path class="f" d="M96.432,67.922h-.707V64.377h.707Z" transform="translate(-80.509 -57.275)"/></g><g transform="translate(10.745 91.554)"><ellipse class="c" cx="5.138" cy="5.138" rx="5.138" ry="5.138" transform="translate(26.729 5.442)"/><path class="e" d="M56.1,114.113V126.04H53.241l-.433-1.827v-.024h-.072a3.555,3.555,0,0,1-3.559,2.14c-3.271,0-5.435-2.5-5.435-6.252s2.164-6.252,5.435-6.252a3.571,3.571,0,0,1,3.559,2.116h.072l.433-1.828Zm-3.295,5.964c0-1.948-1.13-3.246-2.862-3.246-1.707,0-2.837,1.3-2.837,3.246s1.13,3.246,2.837,3.246C51.678,123.323,52.808,122.025,52.808,120.077Z" transform="translate(-17.64 -109.496)"/><path class="e" d="M23.5,123.756c1.106,0,1.827-.481,1.827-1.2,0-.481-.24-.77-.913-.914l-2.117-.409c-2.429-.505-3.727-1.707-3.727-3.559,0-2.285,2.02-3.824,5-3.847a4.71,4.71,0,0,1,4.713,3.15l-2.765.842A1.91,1.91,0,0,0,23.5,116.4c-.986,0-1.611.457-1.611,1.154,0,.529.361.89,1.178,1.034l2.116.432c2.26.433,3.463,1.611,3.463,3.367,0,2.357-2.044,3.944-5.074,3.944-2.837,0-4.978-1.515-5.314-3.775l2.814-.433C21.147,123.106,22.134,123.756,23.5,123.756Z" transform="translate(-13.624 -109.496)"/><path class="e" d="M37.418,116.189v4.833c0,.818.577,1.3,1.539,1.3h1.455v2.91h-2.2c-2.6,0-4.087-1.443-4.087-4.016v-5.026H31.478V113.3h2.646v-4.617h3.294V113.3h2.994v2.886Z" transform="translate(-15.707 -108.686)"/><path class="e" d="M72.507,118.345v7.7H69.213v-6.565a2.321,2.321,0,0,0-2.285-2.573A2.446,2.446,0,0,0,64.5,119.62v6.421H61.205V114.113h2.862l.433,1.876h.072a3.6,3.6,0,0,1,3.631-2.164A4.162,4.162,0,0,1,72.507,118.345Z" transform="translate(-20.393 -109.496)"/><path class="e" d="M89.369,119.266c0,3.752-2.165,6.253-5.435,6.253a3.5,3.5,0,0,1-3.535-2.14h-.072l-.433,1.852H77.033V108.686h3.295v6.444H80.4a3.514,3.514,0,0,1,3.535-2.115C87.2,113.015,89.369,115.515,89.369,119.266Zm-3.367,0c0-1.948-1.13-3.246-2.837-3.246s-2.838,1.3-2.838,3.246,1.13,3.246,2.838,3.246S86,121.215,86,119.266Z" transform="translate(-22.888 -108.686)"/><path class="e" d="M104.93,114.167v11.927h-2.862l-.433-1.852h-.1a3.6,3.6,0,0,1-3.607,2.14,4.18,4.18,0,0,1-4.328-4.521v-7.7H96.9v6.565a2.308,2.308,0,0,0,2.284,2.573,2.438,2.438,0,0,0,2.452-2.717v-6.421Z" transform="translate(-25.5 -109.55)"/><path class="e" d="M113.463,125.23c-2.6,0-4.088-1.443-4.088-4.016V108.686h3.294v12.336a1.038,1.038,0,0,0,1.154,1.107h1.755v3.1Z" transform="translate(-27.986 -108.686)"/><path class="e" d="M129.174,113.569c-3.231-2.837-7.125-1.466-7.125,2.664s7.125,8.67,7.125,8.67,7.124-4.524,7.124-8.67S132.011,110.684,129.174,113.569Z" transform="translate(-29.984 -109.216)"/><path class="e" d="M125.315,108.686H120.7V113.3A9.7,9.7,0,0,1,125.315,108.686Z" transform="translate(-29.771 -108.686)"/><path class="e" d="M139.451,113.3v-4.617h-4.617A9.7,9.7,0,0,1,139.451,113.3Z" transform="translate(-31.999 -108.686)"/><rect class="e" width="3.294" height="11.927" transform="translate(0.018 4.617)"/><rect class="e" width="3.33" height="3.072" transform="translate(0 0)"/><path class="e" d="M134.834,127.439h4.617v-4.617A9.7,9.7,0,0,1,134.834,127.439Z" transform="translate(-31.999 -110.914)"/><path class="e" d="M120.7,122.822v4.617h4.617A9.7,9.7,0,0,1,120.7,122.822Z" transform="translate(-29.771 -110.914)"/></g><g transform="translate(8.125 166.276)"><path class="e" d="M13.881,201.822a2,2,0,0,1-.137.735,1.854,1.854,0,0,1-.4.628,2,2,0,0,1-.656.442,2.268,2.268,0,0,1-.9.168,2.394,2.394,0,0,1-.868-.151,1.938,1.938,0,0,1-.674-.429,1.9,1.9,0,0,1-.439-.686,2.534,2.534,0,0,1-.155-.911,5.018,5.018,0,0,1,.243-1.575,4.34,4.34,0,0,1,.683-1.308,3.6,3.6,0,0,1,1.046-.92,3.244,3.244,0,0,1,1.335-.425l.124.566a2.807,2.807,0,0,0-1.021.328,3.128,3.128,0,0,0-.81.636,3.38,3.38,0,0,0-.562.841,3.125,3.125,0,0,0-.279.938,1.1,1.1,0,0,1,.208-.238,1.365,1.365,0,0,1,.327-.217,2.365,2.365,0,0,1,.425-.155,1.992,1.992,0,0,1,.509-.062,2.58,2.58,0,0,1,.841.128,1.829,1.829,0,0,1,.632.362,1.546,1.546,0,0,1,.4.567A1.922,1.922,0,0,1,13.881,201.822Zm-.734.071a1.246,1.246,0,0,0-.344-.946,1.488,1.488,0,0,0-1.058-.328,1.721,1.721,0,0,0-.873.226,1.484,1.484,0,0,0-.309.234,1.133,1.133,0,0,0-.2.265,1.463,1.463,0,0,0-.018.195v.168a1.709,1.709,0,0,0,.088.535,1.413,1.413,0,0,0,.27.482,1.357,1.357,0,0,0,.454.345,1.441,1.441,0,0,0,.644.133,1.373,1.373,0,0,0,.547-.106,1.387,1.387,0,0,0,.427-.282,1.224,1.224,0,0,0,.278-.417A1.318,1.318,0,0,0,13.148,201.893Z" transform="translate(-9.645 -197.391)"/><path class="e" d="M18.452,203.195a2.182,2.182,0,0,0,.65-.092,1.667,1.667,0,0,0,.517-.26,1.2,1.2,0,0,0,.345-.405,1.121,1.121,0,0,0,.124-.529.935.935,0,0,0-.429-.868,2.211,2.211,0,0,0-1.154-.26h-.566v-.425l1.751-2.2H17.037v-.637h3.5v.637L18.788,200.2h.142a2.332,2.332,0,0,1,.746.115,1.777,1.777,0,0,1,.586.328,1.468,1.468,0,0,1,.386.513,1.617,1.617,0,0,1,.138.681,1.874,1.874,0,0,1-.186.849,1.823,1.823,0,0,1-.505.623,2.217,2.217,0,0,1-.75.38,3.176,3.176,0,0,1-.916.129,4.018,4.018,0,0,1-.785-.067,4.362,4.362,0,0,1-.607-.167l.177-.624a2.6,2.6,0,0,0,.539.173A3.329,3.329,0,0,0,18.452,203.195Z" transform="translate(-10.81 -197.411)"/><path class="e" d="M24.432,203.708l2.707-5.555H23.946v-.637h3.909v.575l-2.7,5.617Z" transform="translate(-11.899 -197.411)"/><path class="e" d="M30.907,200.593a6.249,6.249,0,0,1,.133-1.349,3.07,3.07,0,0,1,.4-1.008,1.8,1.8,0,0,1,.673-.628,2.027,2.027,0,0,1,.966-.216,2.176,2.176,0,0,1,1.006.212,1.709,1.709,0,0,1,.67.618,2.907,2.907,0,0,1,.371,1,7.187,7.187,0,0,1,.115,1.366,6.17,6.17,0,0,1-.133,1.348,3.067,3.067,0,0,1-.4,1.009,1.8,1.8,0,0,1-.674.628,2.035,2.035,0,0,1-.966.216,1.98,1.98,0,0,1-1-.235,1.868,1.868,0,0,1-.674-.659,3.016,3.016,0,0,1-.377-1.013A6.774,6.774,0,0,1,30.907,200.593Zm.735,0c0,.147,0,.289.013.425s.019.268.03.4l2.636-2.388a1.766,1.766,0,0,0-.446-.761,1.111,1.111,0,0,0-.8-.283,1.139,1.139,0,0,0-1.11.65A4.575,4.575,0,0,0,31.642,200.593Zm2.866,0a7.214,7.214,0,0,0-.053-.894l-2.627,2.4a1.873,1.873,0,0,0,.452.8,1.064,1.064,0,0,0,.787.3,1.15,1.15,0,0,0,1.11-.645A4.474,4.474,0,0,0,34.507,200.593Z" transform="translate(-12.997 -197.391)"/><g transform="translate(29.939)"><path class="e" d="M49.423,201.822a2,2,0,0,1-.137.735,1.867,1.867,0,0,1-.4.628,2,2,0,0,1-.656.442,2.268,2.268,0,0,1-.9.168,2.394,2.394,0,0,1-.868-.151,1.938,1.938,0,0,1-.674-.429,1.9,1.9,0,0,1-.439-.686,2.534,2.534,0,0,1-.155-.911,5.018,5.018,0,0,1,.243-1.575,4.34,4.34,0,0,1,.683-1.308,3.6,3.6,0,0,1,1.046-.92,3.244,3.244,0,0,1,1.335-.425l.124.566a2.807,2.807,0,0,0-1.021.328,3.128,3.128,0,0,0-.81.636,3.38,3.38,0,0,0-.562.841,3.125,3.125,0,0,0-.279.938,1.1,1.1,0,0,1,.208-.238,1.365,1.365,0,0,1,.327-.217,2.365,2.365,0,0,1,.425-.155,1.992,1.992,0,0,1,.509-.062,2.58,2.58,0,0,1,.841.128,1.829,1.829,0,0,1,.632.362,1.546,1.546,0,0,1,.4.567A1.922,1.922,0,0,1,49.423,201.822Zm-.734.071a1.246,1.246,0,0,0-.344-.946,1.488,1.488,0,0,0-1.058-.328,1.721,1.721,0,0,0-.873.226,1.484,1.484,0,0,0-.309.234,1.133,1.133,0,0,0-.2.265,1.462,1.462,0,0,0-.018.195v.168a1.709,1.709,0,0,0,.088.535,1.413,1.413,0,0,0,.27.482,1.357,1.357,0,0,0,.454.345,1.441,1.441,0,0,0,.644.133,1.373,1.373,0,0,0,.547-.106,1.387,1.387,0,0,0,.427-.282,1.224,1.224,0,0,0,.278-.417A1.318,1.318,0,0,0,48.69,201.893Z" transform="translate(-45.187 -197.391)"/><path class="e" d="M52.233,200.593a6.252,6.252,0,0,1,.132-1.349,3.07,3.07,0,0,1,.4-1.008,1.8,1.8,0,0,1,.673-.628,2.027,2.027,0,0,1,.966-.216,2.182,2.182,0,0,1,1.007.212,1.713,1.713,0,0,1,.669.618,2.89,2.89,0,0,1,.371,1,7.183,7.183,0,0,1,.116,1.366,6.167,6.167,0,0,1-.134,1.348,3.067,3.067,0,0,1-.4,1.009,1.8,1.8,0,0,1-.674.628,2.035,2.035,0,0,1-.966.216,1.982,1.982,0,0,1-1-.235,1.859,1.859,0,0,1-.673-.659,3.017,3.017,0,0,1-.377-1.013A6.777,6.777,0,0,1,52.233,200.593Zm.734,0c0,.147,0,.289.013.425s.019.268.03.4l2.636-2.388a1.766,1.766,0,0,0-.446-.761,1.11,1.11,0,0,0-.8-.283,1.139,1.139,0,0,0-1.11.65A4.588,4.588,0,0,0,52.967,200.593Zm2.866,0a7.211,7.211,0,0,0-.053-.894l-2.627,2.4a1.882,1.882,0,0,0,.452.8,1.064,1.064,0,0,0,.788.3,1.15,1.15,0,0,0,1.109-.645A4.462,4.462,0,0,0,55.832,200.593Z" transform="translate(-46.298 -197.391)"/></g></g></g></svg>