<svg xmlns="http://www.w3.org/2000/svg" xmlns:xlink="http://www.w3.org/1999/xlink" width="130.535" height="207.889" viewBox="0 0 130.535 207.889"><defs><style>.a{fill:none;}.b{clip-path:url(#a);}.c{fill:#e8271c;}.d{fill:#ae081a;}.e{fill:#fff;}.f{fill:#f2827b;}</style><clipPath id="a"><rect class="a" width="207.889" height="130.535" rx="4.148" transform="translate(130.535 0) rotate(90)"/></clipPath></defs><g class="b"><rect class="c" width="154.993" height="232.347" transform="translate(-12.229 -12.229)"/><g transform="translate(33.517 13.447)"><path class="d" d="M39.3,72.747c0,9.646,2.835,19.442,7.533,29.056a3.854,3.854,0,0,1,1.088-.171c2.282,0,3.815,1.7,3.815,4.231a4.486,4.486,0,0,1-1.061,3.073C76.3,152.68,136.322,190.8,136.322,190.8V36.473C97.686-2.807,39.3,16.3,39.3,72.747Z" transform="translate(-39.303 -15.769)"/><path class="d" d="M165.3,202.741l-12.229-8.366V40.047L165.3,53.075Z" transform="translate(-56.052 -19.343)"/></g><g transform="translate(65.969 33.107)"><path class="e" d="M79.759,47.374a2.3,2.3,0,0,1,.2-.484,4.955,4.955,0,0,0,0-4.668,2.3,2.3,0,0,1-.2-.484.437.437,0,0,1,.229-.29.414.414,0,0,1,.163-.025c.137.019.222.054.485.587a5.691,5.691,0,0,1,0,5.092c-.264.534-.348.568-.486.587a.413.413,0,0,1-.162-.025.445.445,0,0,1-.229-.281Z" transform="translate(-77.711 -39.206)"/><path class="e" d="M84.778,39.121a.555.555,0,0,1,.176-.252.414.414,0,0,1,.416.021,3.582,3.582,0,0,1,.305.516,10.715,10.715,0,0,1,1.04,3.27,11.66,11.66,0,0,1,0,2.979,10.7,10.7,0,0,1-1.04,3.271,3.383,3.383,0,0,1-.308.518.415.415,0,0,1-.413.02.48.48,0,0,1-.171-.271c.026-.076.125-.3.263-.582a9.916,9.916,0,0,0,0-8.888A5.968,5.968,0,0,1,84.778,39.121Z" transform="translate(-78.45 -38.823)"/><path class="e" d="M82.285,48.262a.2.2,0,0,1,.007-.053c.021-.062.144-.327.275-.594a7.266,7.266,0,0,0,.765-3.218c0-.236-.011-.442-.031-.647a7,7,0,0,0-.774-2.725,2.077,2.077,0,0,1-.241-.611c0-.036.012-.07.078-.162a.32.32,0,0,1,.229-.115.356.356,0,0,1,.272.073,8.245,8.245,0,0,1,.776,1.655,8.031,8.031,0,0,1,.4,2.5,8.168,8.168,0,0,1-.663,3.217c-.442,1.038-.657,1.073-.84,1.02a.387.387,0,0,1-.25-.336Z" transform="translate(-78.083 -39.016)"/><path class="e" d="M77.358,46.468a.971.971,0,0,1,.179-.4,2.316,2.316,0,0,0,0-2.633.968.968,0,0,1-.18-.4.5.5,0,0,1,.216-.322c.073-.03.271-.112.55.319a3.236,3.236,0,0,1,0,3.447c-.279.432-.477.35-.551.32a.48.48,0,0,1-.2-.253Z" transform="translate(-77.358 -39.391)"/></g><g transform="translate(66.227 47.709)"><path class="f" d="M78.556,56.4a.447.447,0,1,1-.449-.453A.445.445,0,0,1,78.556,56.4Zm-.033,4.286h-.715V57.1h.715Z" transform="translate(-77.661 -55.946)"/><path class="f" d="M82.39,58.189a1.934,1.934,0,0,0-1.018-.305c-.4,0-.686.159-.686.431s.31.344.741.416l.2.033c.641.1,1.144.379,1.144,1,0,.792-.7,1.17-1.469,1.17a2.5,2.5,0,0,1-1.512-.469l.372-.577a1.9,1.9,0,0,0,1.143.387c.4,0,.705-.156.705-.433,0-.249-.261-.341-.761-.42l-.229-.036c-.634-.1-1.095-.379-1.095-1.028,0-.748.667-1.138,1.431-1.138a2.528,2.528,0,0,1,1.371.381Z" transform="translate(-77.975 -56.134)"/><path class="f" d="M86.94,57.964H85.827v2.919h-.715V57.964H84v-.669h2.94Z" transform="translate(-78.594 -56.145)"/><path class="f" d="M91.253,60.883h-.764l-.312-.835H88.646l-.312.835h-.746l1.4-3.588h.872Zm-2.36-1.495h1.038L89.413,58Z" transform="translate(-79.122 -56.145)"/><path class="f" d="M95.988,60.883h-.671l-1.821-2.4,0,2.4h-.715V57.295h.669l1.822,2.4v-2.4h.718Z" transform="translate(-79.887 -56.145)"/><path class="f" d="M99.314,57.295c.837,0,1.362.31,1.362.994a.8.8,0,0,1-.521.762.863.863,0,0,1,.6.805c0,.69-.49,1.028-1.351,1.028H97.848V57.295Zm-.751.631v.837H99.3c.356,0,.633-.074.633-.423s-.281-.414-.635-.414Zm0,1.466v.861l.8,0c.395,0,.644-.092.644-.436s-.249-.428-.644-.428Z" transform="translate(-80.633 -56.145)"/><path class="f" d="M105.4,59.451a1.546,1.546,0,0,1-3.091,0V57.295h.718v2.12a.828.828,0,1,0,1.655,0v-2.12h.718Z" transform="translate(-81.29 -56.145)"/><path class="f" d="M109.808,60.883H107.2V57.295h.715v2.92h1.9Z" transform="translate(-82.009 -56.145)"/><path class="f" d="M111.329,57.175,110.97,58.7h-.564l.171-1.527Z" transform="translate(-82.482 -56.127)"/><path class="f" d="M115.637,59.451a1.546,1.546,0,0,1-3.091,0V57.295h.717v2.12a.828.828,0,1,0,1.656,0v-2.12h.718Z" transform="translate(-82.797 -56.145)"/><path class="f" d="M120.639,60.883h-.671l-1.821-2.4,0,2.4h-.715V57.295h.67l1.822,2.4v-2.4h.718Z" transform="translate(-83.516 -56.145)"/><path class="f" d="M78.879,66.489h-.331v1.476h-.715V64.377h.715V65.83h.339l1.187-1.453h.9l-1.5,1.751,1.618,1.838h-.929Z" transform="translate(-77.686 -57.187)"/><path class="f" d="M85.775,67.965h-.764l-.313-.835h-1.53l-.313.835h-.746l1.4-3.588h.872Zm-2.361-1.495h1.039l-.518-1.387Z" transform="translate(-78.316 -57.187)"/><path class="f" d="M88.818,64.377c.857,0,1.316.405,1.316,1.092a1.067,1.067,0,0,1-1.1,1.058l1.105,1.438h-.867l-1.046-1.428h-.21v1.428H87.3V64.377Zm-.8.659v.879h.79c.39,0,.592-.144.592-.446s-.212-.433-.592-.433Z" transform="translate(-79.08 -57.187)"/><path class="f" d="M94.29,65.046H93.177v2.919h-.715V65.046H91.349v-.669H94.29Z" transform="translate(-79.676 -57.187)"/><path class="f" d="M96.439,67.965h-.715V64.377h.715Z" transform="translate(-80.32 -57.187)"/></g><g transform="translate(10.878 92.685)"><circle class="c" cx="5.202" cy="5.202" r="5.202" transform="translate(27.059 5.51)"/><path class="e" d="M56.255,114.117v12.074h-2.9l-.438-1.85v-.025h-.072a3.6,3.6,0,0,1-3.6,2.167c-3.311,0-5.5-2.532-5.5-6.329s2.191-6.329,5.5-6.329a3.615,3.615,0,0,1,3.6,2.142h.072l.438-1.851Zm-3.335,6.038c0-1.972-1.144-3.287-2.9-3.287-1.729,0-2.872,1.314-2.872,3.287s1.144,3.286,2.872,3.286C51.776,123.44,52.92,122.126,52.92,120.154Z" transform="translate(-17.318 -109.443)"/><path class="e" d="M23.569,123.878c1.12,0,1.85-.487,1.85-1.217,0-.487-.243-.779-.924-.925l-2.143-.414c-2.459-.512-3.773-1.729-3.773-3.6,0-2.313,2.045-3.871,5.063-3.895a4.769,4.769,0,0,1,4.771,3.189l-2.8.852a1.934,1.934,0,0,0-2.045-1.436c-1,0-1.631.462-1.631,1.168,0,.536.365.9,1.193,1.047l2.142.437c2.288.438,3.506,1.631,3.506,3.409,0,2.386-2.07,3.993-5.137,3.993-2.872,0-5.039-1.534-5.379-3.822l2.848-.438C21.183,123.221,22.181,123.878,23.569,123.878Z" transform="translate(-13.567 -109.443)"/><path class="e" d="M37.491,116.282v4.892c0,.828.584,1.315,1.558,1.315h1.473v2.945H38.294c-2.629,0-4.138-1.461-4.138-4.065v-5.088H31.478V113.36h2.679v-4.674h3.334v4.674h3.031v2.922Z" transform="translate(-15.512 -108.686)"/><path class="e" d="M72.647,118.4v7.79H69.311v-6.646a2.35,2.35,0,0,0-2.313-2.6,2.476,2.476,0,0,0-2.459,2.75v6.5H61.205V114.117h2.9l.438,1.9h.073a3.64,3.64,0,0,1,3.675-2.191A4.213,4.213,0,0,1,72.647,118.4Z" transform="translate(-19.889 -109.443)"/><path class="e" d="M89.522,119.4c0,3.8-2.192,6.33-5.5,6.33a3.542,3.542,0,0,1-3.578-2.167h-.073l-.438,1.874h-2.9V108.686h3.335v6.524h.073a3.558,3.558,0,0,1,3.578-2.141C87.33,113.068,89.522,115.6,89.522,119.4Zm-3.409,0c0-1.972-1.144-3.286-2.872-3.286s-2.873,1.314-2.873,3.286,1.144,3.287,2.873,3.287S86.113,121.369,86.113,119.4Z" transform="translate(-22.219 -108.686)"/><path class="e" d="M105.07,114.167v12.074h-2.9l-.438-1.874h-.1a3.645,3.645,0,0,1-3.652,2.167,4.232,4.232,0,0,1-4.382-4.577v-7.79h3.335v6.646a2.337,2.337,0,0,0,2.313,2.605,2.468,2.468,0,0,0,2.482-2.751v-6.5Z" transform="translate(-24.659 -109.493)"/><path class="e" d="M113.514,125.435c-2.629,0-4.139-1.461-4.139-4.065V108.686h3.335v12.488a1.051,1.051,0,0,0,1.168,1.121h1.777v3.14Z" transform="translate(-26.981 -108.686)"/><path class="e" d="M129.262,113.587c-3.271-2.872-7.213-1.484-7.213,2.7s7.213,8.777,7.213,8.777,7.212-4.58,7.212-8.777S132.134,110.667,129.262,113.587Z" transform="translate(-28.846 -109.181)"/><path class="e" d="M125.372,108.686H120.7v4.674A9.818,9.818,0,0,1,125.372,108.686Z" transform="translate(-28.648 -108.686)"/><path class="e" d="M139.508,113.36v-4.674h-4.674A9.818,9.818,0,0,1,139.508,113.36Z" transform="translate(-30.729 -108.686)"/><rect class="e" width="3.335" height="12.074" transform="translate(0.018 4.674)"/><rect class="e" width="3.372" height="3.11" transform="translate(0 0)"/><path class="e" d="M134.834,127.5h4.674v-4.674A9.818,9.818,0,0,1,134.834,127.5Z" transform="translate(-30.729 -110.767)"/><path class="e" d="M120.7,122.822V127.5h4.674A9.818,9.818,0,0,1,120.7,122.822Z" transform="translate(-28.648 -110.767)"/></g><g transform="translate(8.225 168.33)"><path class="e" d="M13.934,201.877a2.03,2.03,0,0,1-.139.744,1.877,1.877,0,0,1-.408.635,2.021,2.021,0,0,1-.664.448,2.3,2.3,0,0,1-.915.171,2.423,2.423,0,0,1-.879-.153,1.961,1.961,0,0,1-.682-.434,1.924,1.924,0,0,1-.444-.694,2.565,2.565,0,0,1-.157-.922,5.08,5.08,0,0,1,.246-1.595,4.394,4.394,0,0,1,.692-1.324,3.642,3.642,0,0,1,1.059-.931,3.284,3.284,0,0,1,1.352-.43l.125.573a2.842,2.842,0,0,0-1.034.332,3.167,3.167,0,0,0-.82.644,3.422,3.422,0,0,0-.569.851,3.163,3.163,0,0,0-.282.949,1.114,1.114,0,0,1,.211-.241,1.38,1.38,0,0,1,.331-.22,2.394,2.394,0,0,1,.43-.157,2.016,2.016,0,0,1,.515-.062,2.612,2.612,0,0,1,.851.13,1.852,1.852,0,0,1,.64.367,1.565,1.565,0,0,1,.4.574A1.946,1.946,0,0,1,13.934,201.877Zm-.743.072a1.261,1.261,0,0,0-.348-.958,1.506,1.506,0,0,0-1.071-.332,1.742,1.742,0,0,0-.883.229,1.5,1.5,0,0,0-.313.237,1.146,1.146,0,0,0-.2.269,1.481,1.481,0,0,0-.018.2v.171a1.73,1.73,0,0,0,.089.542,1.431,1.431,0,0,0,.273.488,1.374,1.374,0,0,0,.46.349,1.459,1.459,0,0,0,.652.135,1.39,1.39,0,0,0,.553-.107,1.4,1.4,0,0,0,.432-.286,1.239,1.239,0,0,0,.281-.422A1.334,1.334,0,0,0,13.191,201.948Z" transform="translate(-9.645 -197.391)"/><path class="e" d="M18.47,203.265a2.21,2.21,0,0,0,.658-.093,1.688,1.688,0,0,0,.524-.264A1.217,1.217,0,0,0,20,202.5a1.135,1.135,0,0,0,.125-.536.946.946,0,0,0-.434-.878,2.239,2.239,0,0,0-1.168-.264H17.95v-.43l1.773-2.229H17.037v-.645h3.546v.645L18.81,200.23h.144a2.36,2.36,0,0,1,.756.116,1.8,1.8,0,0,1,.594.332,1.486,1.486,0,0,1,.391.519,1.637,1.637,0,0,1,.14.69,1.9,1.9,0,0,1-.188.86,1.845,1.845,0,0,1-.512.631,2.244,2.244,0,0,1-.759.385,3.214,3.214,0,0,1-.928.13,4.065,4.065,0,0,1-.795-.068,4.411,4.411,0,0,1-.615-.169l.179-.632a2.632,2.632,0,0,0,.546.175A3.368,3.368,0,0,0,18.47,203.265Z" transform="translate(-10.733 -197.41)"/><path class="e" d="M24.438,203.785l2.74-5.623H23.946v-.645H27.9v.582l-2.731,5.686Z" transform="translate(-11.75 -197.41)"/><path class="e" d="M30.907,200.632a6.326,6.326,0,0,1,.135-1.366,3.108,3.108,0,0,1,.4-1.021,1.825,1.825,0,0,1,.681-.635,2.052,2.052,0,0,1,.978-.219,2.2,2.2,0,0,1,1.018.215,1.73,1.73,0,0,1,.678.626,2.943,2.943,0,0,1,.376,1.017,7.277,7.277,0,0,1,.117,1.383A6.246,6.246,0,0,1,35.16,202a3.105,3.105,0,0,1-.4,1.022,1.823,1.823,0,0,1-.682.636,2.06,2.06,0,0,1-.978.219,2,2,0,0,1-1.009-.238,1.891,1.891,0,0,1-.682-.667,3.053,3.053,0,0,1-.381-1.025A6.857,6.857,0,0,1,30.907,200.632Zm.744,0c0,.149,0,.293.014.43s.019.271.031.4l2.668-2.418a1.788,1.788,0,0,0-.452-.77,1.125,1.125,0,0,0-.81-.287,1.153,1.153,0,0,0-1.124.658A4.632,4.632,0,0,0,31.651,200.632Zm2.9,0a7.3,7.3,0,0,0-.054-.9l-2.66,2.427a1.9,1.9,0,0,0,.457.814,1.077,1.077,0,0,0,.8.3,1.165,1.165,0,0,0,1.124-.653A4.53,4.53,0,0,0,34.552,200.632Z" transform="translate(-12.775 -197.391)"/><g transform="translate(30.309)"><path class="e" d="M49.476,201.877a2.03,2.03,0,0,1-.139.744,1.89,1.89,0,0,1-.408.635,2.021,2.021,0,0,1-.664.448,2.3,2.3,0,0,1-.915.171,2.423,2.423,0,0,1-.879-.153,1.961,1.961,0,0,1-.682-.434,1.924,1.924,0,0,1-.444-.694,2.565,2.565,0,0,1-.157-.922,5.08,5.08,0,0,1,.246-1.595,4.393,4.393,0,0,1,.692-1.324,3.642,3.642,0,0,1,1.059-.931,3.284,3.284,0,0,1,1.352-.43l.125.573a2.842,2.842,0,0,0-1.034.332,3.167,3.167,0,0,0-.82.644,3.422,3.422,0,0,0-.569.851,3.163,3.163,0,0,0-.282.949,1.114,1.114,0,0,1,.211-.241,1.38,1.38,0,0,1,.331-.22,2.394,2.394,0,0,1,.43-.157,2.016,2.016,0,0,1,.515-.062,2.612,2.612,0,0,1,.851.13,1.852,1.852,0,0,1,.64.367,1.565,1.565,0,0,1,.4.574A1.946,1.946,0,0,1,49.476,201.877Zm-.743.072a1.261,1.261,0,0,0-.348-.958,1.506,1.506,0,0,0-1.071-.332,1.742,1.742,0,0,0-.883.229,1.5,1.5,0,0,0-.313.237,1.146,1.146,0,0,0-.2.269,1.481,1.481,0,0,0-.018.2v.171a1.73,1.73,0,0,0,.089.542,1.431,1.431,0,0,0,.273.488,1.374,1.374,0,0,0,.46.349,1.459,1.459,0,0,0,.652.135,1.39,1.39,0,0,0,.553-.107,1.4,1.4,0,0,0,.432-.286,1.239,1.239,0,0,0,.281-.422A1.334,1.334,0,0,0,48.733,201.948Z" transform="translate(-45.187 -197.391)"/><path class="e" d="M52.233,200.632a6.329,6.329,0,0,1,.134-1.366,3.108,3.108,0,0,1,.4-1.021,1.825,1.825,0,0,1,.681-.635,2.052,2.052,0,0,1,.978-.219,2.209,2.209,0,0,1,1.019.215,1.734,1.734,0,0,1,.677.626,2.926,2.926,0,0,1,.376,1.017,7.272,7.272,0,0,1,.118,1.383A6.243,6.243,0,0,1,56.485,202a3.105,3.105,0,0,1-.4,1.022,1.823,1.823,0,0,1-.682.636,2.06,2.06,0,0,1-.978.219,2.007,2.007,0,0,1-1.009-.238,1.882,1.882,0,0,1-.681-.667,3.053,3.053,0,0,1-.382-1.025A6.86,6.86,0,0,1,52.233,200.632Zm.743,0c0,.149,0,.293.014.43s.019.271.031.4l2.668-2.418a1.788,1.788,0,0,0-.452-.77,1.123,1.123,0,0,0-.81-.287,1.153,1.153,0,0,0-1.124.658A4.645,4.645,0,0,0,52.976,200.632Zm2.9,0a7.3,7.3,0,0,0-.054-.9l-2.66,2.427a1.9,1.9,0,0,0,.457.814,1.077,1.077,0,0,0,.8.3,1.164,1.164,0,0,0,1.123-.653A4.517,4.517,0,0,0,55.877,200.632Z" transform="translate(-46.224 -197.391)"/></g></g></g></svg>