<svg xmlns="http://www.w3.org/2000/svg" xmlns:xlink="http://www.w3.org/1999/xlink" width="129.569" height="206.351" viewBox="0 0 129.569 206.351"><defs><style>.a,.j,.k{fill:none;}.b{clip-path:url(#a);}.c{fill:#0060af;}.d{fill:#1ca7e3;}.e,.g{fill:#fff;}.e{fill-rule:evenodd;}.f{fill:#77d0f7;}.h,.l{fill:#040505;}.i{clip-path:url(#b);}.j{stroke:#1ca7e3;stroke-width:2px;}.j,.k{stroke-miterlimit:10;}.k{stroke:#0060af;stroke-width:0.5px;}.l{font-size:3px;font-family:MarkPro-Italic, Mark Pro;letter-spacing:0.04em;font-style:italic;}.m{stroke:none;}</style><clipPath id="a"><rect class="a" width="206.351" height="129.569" rx="4.148" transform="translate(129.569) rotate(90)"/></clipPath><clipPath id="b"><circle class="a" cx="22.307" cy="22.307" r="22.307"/></clipPath></defs><g class="b" transform="translate(0 0)"><rect class="c" width="153.846" height="230.628" transform="translate(-12.138 -12.138)"/><path class="d" d="M-14.34,201.537l12.138-8.3V40.047L-14.34,52.978Z" transform="translate(2.202 -6.149)"/><path class="d" d="M0,189.506S96.3,128.359,96.3,72.326,38.35-2.67,0,36.319" transform="translate(0 -2.421)"/><g transform="translate(7.279 180.8)"><path class="e" d="M49.4,228.274v-5.915h2.181q2.355,0,2.356,1.518a1.2,1.2,0,0,1-.787,1.159,1.526,1.526,0,0,1,1.231,1.543q0,1.7-2.338,1.7Zm2.254-3.577q.794,0,.794-.613,0-.677-.794-.676h-.766V224.7Zm-.766,2.495h.858a1.786,1.786,0,0,0,.724-.11.583.583,0,0,0,.342-.583q0-.744-1.074-.744h-.85Z" transform="translate(-14.863 -214.939)"/><path class="e" d="M66.253,228.274v-5.915h1.48v4.773h2.549v1.142Z" transform="translate(-17.451 -214.939)"/><path class="e" d="M71.8,228.274v-5.915h2.181q2.355,0,2.356,1.518a1.2,1.2,0,0,1-.786,1.159,1.526,1.526,0,0,1,1.23,1.543q0,1.7-2.338,1.7ZM74.05,224.7q.795,0,.795-.613,0-.677-.795-.676h-.765V224.7Zm-.765,2.495h.858a1.776,1.776,0,0,0,.723-.11.582.582,0,0,0,.343-.583q0-.744-1.074-.744h-.85Z" transform="translate(-18.302 -214.939)"/><path class="e" d="M80.347,228.275v-5.808h1.568v.628a2.269,2.269,0,0,1,1.684-.729,1.462,1.462,0,0,1,1.485.919,2.589,2.589,0,0,1,1.9-.919q1.7,0,1.7,1.938v3.97h-1.58v-3.753c0-.687-.236-1.029-.708-1.029a1.342,1.342,0,0,0-1.124.791v3.991H83.742v-3.753c0-.687-.236-1.029-.708-1.029a1.324,1.324,0,0,0-1.12.791v3.991Z" transform="translate(-19.615 -214.941)"/><path class="e" d="M77.955,228.618v-4.01c.018.02.036.04.055.059a1,1,0,0,0,1.38.006c.023-.023.045-.047.065-.072h.02v4.016Z" transform="translate(-19.247 -215.284)"/><path class="e" d="M77.709,223.19a.927.927,0,0,1,.279-.684.974.974,0,0,1,1.38,1.374,1,1,0,0,1-1.38-.006.93.93,0,0,1-.279-.684" transform="translate(-19.21 -214.918)"/><path class="e" d="M55.933,225.219a5.683,5.683,0,0,1,2.452-2.423,5.487,5.487,0,0,0-1.2,1.86c-.676,2.1.8,3.676,3.185,3.523a6.809,6.809,0,0,0,3.889-1.618,6.7,6.7,0,0,1-5.731,2.609c-2.379-.2-3.539-1.965-2.592-3.95" transform="translate(-15.816 -215.006)"/><path class="e" d="M58.3,224.416a4.583,4.583,0,0,1,1.979-1.954,4.177,4.177,0,0,0-.893,1.493c-.546,1.7.57,2.974,2.493,2.849a5.433,5.433,0,0,0,3.1-1.339A5.363,5.363,0,0,1,60.39,227.6c-1.92-.159-2.856-1.586-2.092-3.188" transform="translate(-16.189 -214.955)"/><path class="e" d="M62.711,224.137a3.15,3.15,0,0,1-1.673.862,4.152,4.152,0,0,0,1.155-.924c.679-.864.755-1.848.109-2.275a1.467,1.467,0,0,0-1.388-.018,1.785,1.785,0,0,1,2.268-.1c.56.593.257,1.712-.47,2.456" transform="translate(-16.631 -214.78)"/><rect class="f" width="0.349" height="20.721" transform="translate(27.453)"/><path class="e" d="M14.934,229.776l-.025.27a1.259,1.259,0,0,0-.154-.051l-.072-.013a.663.663,0,0,0-.07,0,.334.334,0,0,0-.166.034.1.1,0,0,0-.059.092.1.1,0,0,0,.03.071.221.221,0,0,0,.091.053l.058.019a1.141,1.141,0,0,1,.3.128.336.336,0,0,1,.1.122.391.391,0,0,1,.032.162.4.4,0,0,1-.143.33.658.658,0,0,1-.416.114,1.419,1.419,0,0,1-.2-.014,1.5,1.5,0,0,1-.2-.041l.03-.292a.989.989,0,0,0,.179.063c.028.007.056.012.084.016a.68.68,0,0,0,.081.006.3.3,0,0,0,.163-.039.121.121,0,0,0,.06-.106c0-.054-.063-.1-.191-.148l-.071-.025a.647.647,0,0,1-.267-.155.332.332,0,0,1-.08-.229.359.359,0,0,1,.141-.3.659.659,0,0,1,.4-.107,1.3,1.3,0,0,1,.186.012c.03,0,.058.008.086.014a.843.843,0,0,1,.085.021" transform="translate(-9.433 -216.071)"/><path class="e" d="M16.152,229.769h1v.262h-.324v1.047h-.349v-1.047h-.325Z" transform="translate(-9.759 -216.077)"/><path class="e" d="M18.82,230.061l-.17.491h.334Zm-.2-.292h.422l.5,1.309H19.16l-.093-.278h-.5l-.1.278H18.12Z" transform="translate(-10.061 -216.077)"/><path class="e" d="M20.746,229.769h.436l.379.785a1.194,1.194,0,0,1,.045.111c0,.008.012.034.026.077s.02.063.031.095c-.011-.065-.019-.125-.025-.18s-.008-.1-.008-.146v-.742h.315v1.309h-.433l-.394-.814a1.088,1.088,0,0,1-.051-.122c-.013-.039-.027-.087-.042-.143.006.04.011.074.014.1s.008.066.013.112c0,.027,0,.057.006.09s0,.06,0,.083v.692h-.315Z" transform="translate(-10.464 -216.077)"/><path class="e" d="M23.669,230.529v.307h.137a.278.278,0,0,0,.162-.04.134.134,0,0,0,.056-.116.132.132,0,0,0-.051-.113.249.249,0,0,0-.151-.038Zm0-.525v.293h.106a.3.3,0,0,0,.166-.037.129.129,0,0,0,.055-.114.122.122,0,0,0-.052-.106.27.27,0,0,0-.152-.036Zm-.341-.235h.536a.62.62,0,0,1,.357.085.293.293,0,0,1,.12.254.282.282,0,0,1-.063.19.352.352,0,0,1-.182.108.356.356,0,0,1,.207.106.3.3,0,0,1,.073.206.3.3,0,0,1-.132.273.73.73,0,0,1-.406.09h-.509Z" transform="translate(-10.86 -216.077)"/><path class="e" d="M25.669,229.769h.35v.762a.451.451,0,0,0,.049.241.176.176,0,0,0,.159.076.194.194,0,0,0,.169-.081.4.4,0,0,0,.058-.236v-.762h.333v.762a.6.6,0,0,1-.14.433.678.678,0,0,1-.836,0,.6.6,0,0,1-.141-.433Z" transform="translate(-11.22 -216.077)"/><path class="e" d="M28.151,229.769H28.5v1.051h.526v.259h-.875Z" transform="translate(-11.601 -216.077)"/><path class="e" d="M12.492,229.425h.349v.174h-.349Zm0,.291h.349v1.309h-.349Z" transform="translate(-9.197 -216.024)"/><path class="e" d="M9.17,233.88v.515H9.4a.461.461,0,0,0,.271-.067.252.252,0,0,0,.008-.384.421.421,0,0,0-.253-.064Zm0-.878v.489h.178a.489.489,0,0,0,.277-.063.213.213,0,0,0,.092-.19.2.2,0,0,0-.086-.177A.45.45,0,0,0,9.375,233Zm-.571-.394h.9a1.033,1.033,0,0,1,.6.142.489.489,0,0,1,.2.425.478.478,0,0,1-.1.317.213.213,0,1,0,.04.357.5.5,0,0,1,.122.345.512.512,0,0,1-.221.456,1.224,1.224,0,0,1-.68.149H8.6Z" transform="translate(-8.599 -216.513)"/><path class="e" d="M13.633,232.608H14.3l.438.925.436-.925H15.8l-.8,1.371v.82h-.584v-.814Z" transform="translate(-9.372 -216.513)"/><path class="e" d="M16.47,232.52h.584V233.8a.761.761,0,0,0,.083.4.3.3,0,0,0,.267.126.324.324,0,0,0,.283-.135.67.67,0,0,0,.1-.4V232.52h.556v1.275a1.009,1.009,0,0,1-.233.726,1.136,1.136,0,0,1-1.4,0,1,1,0,0,1-.235-.724Zm1.032-.488h.555v.293H17.5Zm-.75,0h.554v.293h-.554Z" transform="translate(-9.807 -216.424)"/><path class="e" d="M11.147,232.52h.584V233.8a.752.752,0,0,0,.084.4.3.3,0,0,0,.267.126.325.325,0,0,0,.283-.135.676.676,0,0,0,.1-.4V232.52h.556v1.275a1.009,1.009,0,0,1-.233.726.937.937,0,0,1-.7.24.932.932,0,0,1-.7-.243,1,1,0,0,1-.236-.724Zm1.033-.488h.554v.293H12.18Zm-.751,0h.555v.293h-.555Z" transform="translate(-8.99 -216.424)"/><path class="e" d="M19.319,232.608H19.9v.947l.678-.947h.654l-.8,1.007.888,1.184h-.726l-.689-1.017V234.8h-.584Z" transform="translate(-10.245 -216.513)"/><path class="e" d="M24.31,232.608h1.521v.411h-.937v.442h.885v.417h-.885v.5h.973v.423H24.31Z" transform="translate(-11.011 -216.513)"/><path class="e" d="M26.74,232.608h.584v.837h.682v-.837h.584V234.8h-.584v-.916h-.682v.916H26.74Z" transform="translate(-11.384 -216.513)"/><path class="e" d="M29.572,232.032h.584v.293h-.584Zm0,.488h.584v2.191h-.584Z" transform="translate(-11.819 -216.424)"/><path class="e" d="M31.482,232.993v.562h.2a.479.479,0,0,0,.285-.069.238.238,0,0,0,.094-.206.241.241,0,0,0-.106-.218.62.62,0,0,0-.334-.069Zm-.572-.385h.872a1.182,1.182,0,0,1,.646.14.483.483,0,0,1,.21.431.537.537,0,0,1-.11.348.561.561,0,0,1-.322.185.546.546,0,0,1,.278.36l.262.727h-.609l-.193-.6a.377.377,0,0,0-.125-.2.442.442,0,0,0-.251-.056h-.085v.855H30.91Z" transform="translate(-12.024 -216.513)"/><path class="e" d="M23.523,234.094a.678.678,0,0,1-.238.556.751.751,0,0,1-.283.135l-.026.295H22.42l.024-.247q-.093-.005-.185-.018a2.721,2.721,0,0,1-.333-.068l.05-.488a1.663,1.663,0,0,0,.3.106,1.1,1.1,0,0,0,.138.026,1.16,1.16,0,0,0,.138.009.494.494,0,0,0,.271-.065.2.2,0,0,0,.1-.176c0-.091-.106-.174-.321-.251l-.118-.041a1.092,1.092,0,0,1-.447-.259.556.556,0,0,1-.132-.383.592.592,0,0,1,.235-.506,1.1,1.1,0,0,1,.676-.179,2.025,2.025,0,0,1,.312.021c.051.006.1.012.145.02l.144.036-.044.453a1.815,1.815,0,0,0-.259-.085c-.041-.008-.08-.014-.12-.02a.8.8,0,0,0-.118-.009.562.562,0,0,0-.277.059.168.168,0,0,0-.05.273.384.384,0,0,0,.156.088l.1.03a1.859,1.859,0,0,1,.5.215.588.588,0,0,1,.171.2.668.668,0,0,1,.052.27" transform="translate(-10.642 -216.503)"/><path class="e" d="M12.848,237.25v.308h.138a.28.28,0,0,0,.162-.04.136.136,0,0,0,.056-.117.132.132,0,0,0-.051-.113A.245.245,0,0,0,13,237.25Zm0-.525v.293h.107a.3.3,0,0,0,.165-.037.129.129,0,0,0,.055-.114.12.12,0,0,0-.052-.106.267.267,0,0,0-.152-.036Zm-.342-.236h.537a.621.621,0,0,1,.358.085.292.292,0,0,1,.12.254.282.282,0,0,1-.063.19.349.349,0,0,1-.182.108.361.361,0,0,1,.207.106.3.3,0,0,1,.073.206.306.306,0,0,1-.132.273.737.737,0,0,1-.406.09h-.51Z" transform="translate(-9.199 -217.109)"/><path class="e" d="M14.472,236.489h.91v.245h-.561V237h.529v.249h-.529v.3H15.4v.253h-.931Z" transform="translate(-9.501 -217.109)"/><path class="e" d="M16.369,236.489h.349v1.052h.527v.259h-.876Z" transform="translate(-9.792 -217.109)"/><path class="e" d="M18.082,236.489h.91v.245h-.561V237h.529v.249h-.529v.3h.582v.253h-.931Z" transform="translate(-10.055 -217.109)"/><path class="e" d="M20.283,236.742v.8h.152a.377.377,0,0,0,.284-.1.411.411,0,0,0,.1-.3.394.394,0,0,0-.1-.292.408.408,0,0,0-.3-.1Zm-.351-.253h.46a1.652,1.652,0,0,1,.3.023.548.548,0,0,1,.412.3.685.685,0,0,1,.074.323.717.717,0,0,1-.076.345.6.6,0,0,1-.232.234.6.6,0,0,1-.2.064c-.039.006-.086.011-.142.014s-.117.006-.183.006h-.416Z" transform="translate(-10.339 -217.109)"/><path class="e" d="M22.981,236.489h.4l.262.553.261-.553h.376l-.476.82v.491h-.349v-.487Z" transform="translate(-10.807 -217.109)"/><path class="e" d="M25.084,236.489h.91v.245h-.561V237h.529v.249h-.529v.3h.582v.253h-.931Z" transform="translate(-11.13 -217.109)"/><path class="e" d="M27.8,236.5l-.026.27a1.213,1.213,0,0,0-.154-.051l-.072-.013a.5.5,0,0,0-.07,0,.335.335,0,0,0-.166.034.1.1,0,0,0-.059.092.1.1,0,0,0,.03.071.221.221,0,0,0,.092.052l.058.019a1.106,1.106,0,0,1,.3.129.315.315,0,0,1,.1.122.371.371,0,0,1,.033.161.4.4,0,0,1-.144.331.656.656,0,0,1-.416.114,1.41,1.41,0,0,1-.2-.014,1.472,1.472,0,0,1-.2-.041l.03-.292a1.033,1.033,0,0,0,.179.063c.027.007.055.012.084.016a.681.681,0,0,0,.081.005.3.3,0,0,0,.163-.039.12.12,0,0,0,.06-.1c0-.054-.063-.1-.191-.149l-.071-.025a.656.656,0,0,1-.267-.156.327.327,0,0,1-.081-.229.357.357,0,0,1,.142-.3.653.653,0,0,1,.4-.108,1.42,1.42,0,0,1,.186.012c.03,0,.059.008.087.014a.827.827,0,0,1,.085.021" transform="translate(-11.408 -217.103)"/><path class="e" d="M22.055,236.146H22.4v.174h-.349Zm0,.291H22.4v1.31h-.349Z" transform="translate(-10.665 -217.056)"/><path class="e" d="M28.758,236.146h.349v.174h-.349Zm0,.291h.349v1.31h-.349Z" transform="translate(-11.694 -217.056)"/><path class="g" d="M19.857,223.958v1.682a4.011,4.011,0,0,1-3.824-4.005V221.3h.336v.336H16.7V221.3h.335v.336h.336V221.3h.336v.336a2.331,2.331,0,0,0,2.145,2.324m3.861-2.324h-.335V221.3h-.336v.336H22.71V221.3h-.335v.336a2.331,2.331,0,0,1-2.146,2.324v1.682a4.01,4.01,0,0,0,3.824-4.005V221.3h-.336Zm-6.656-2.679a1.052,1.052,0,0,0-1.022.8h2.043a1.051,1.051,0,0,0-1.022-.8m2.45,2.987.532.921.532-.921Zm1.6-.921H20.043l.532.921Zm.9-1.264h2.043a1.052,1.052,0,0,0-2.043,0m-1.96,3.835a1.959,1.959,0,0,1-1.959-1.959v-2.987l-.279-.278v-.28h.279V216.96l.28-1.679.279,1.679v1.128h.56v-1.13l-.279-.278v-.28H19.2v-1.128l.28-1.679.28,1.679V216.4h.56v-1.128l.279-1.679.28,1.679V216.4h.279v.28l-.279.278v1.13h.56V216.96l.279-1.679L22,216.96v1.128h.279v.28l-.279.278v3.013h0a1.958,1.958,0,0,1-1.958,1.933m.84-3.729a1.965,1.965,0,0,1,.56.4v-1.618l-.28-.278-.279.278Zm-1.119-1.775h.56v-1.13l-.28-.278-.279.278Zm0,1.607a1.933,1.933,0,0,1,.56,0v-1.049l-.28-.278-.279.278Zm-1.12.569a1.977,1.977,0,0,1,.56-.4v-1.217l-.279-.278-.28.278Zm2.463,2.6-.532-.921h1.064l-.532-.921-.532-.921-.532.921-.532-.921-.532.921h1.063l-.532.921-.532-.921-.532.921h1.063l-.532.921h2.127Zm-4.235-2.793a1.249,1.249,0,0,0-1.212.951h2.423a1.247,1.247,0,0,0-1.211-.951m5.13.951h2.423a1.247,1.247,0,0,0-2.423,0" transform="translate(-9.683 -213.594)"/></g><g transform="translate(90.468 167.181)"><rect class="g" width="33.592" height="33.592"/><g transform="translate(1.68 1.68)"><path class="a" d="M121.275,211.616v1.043h-1.043v-2.085H119.19v2.085h-1.043v2.085H115.02v1.042h1.043v2.085h2.085v-1.043h-1.042v-1.042h1.042v1.042h1.043V213.7h1.043v3.128H119.19v2.085h1.043v-1.043h1.043v-1.043h1.042v-2.085h-1.042V213.7h2.085v-2.085h-1.043v-1.042h-1.042Z" transform="translate(-109.807 -201.191)"/><path class="a" d="M128.854,208.964H129.9v1.042h-1.042v1.042h-1.043v1.043h-2.085v2.085h-1.043v2.085h-1.043V217.3h2.085v-2.085h2.085v-2.085H129.9v-2.085h1.043v-3.128H129.9v-1.042h-1.042v1.042h-1.043v-1.042h-1.043v2.085h2.085Z" transform="translate(-111.131 -200.623)"/><rect class="a" width="1.043" height="1.042" transform="translate(15.638 9.383)"/><path class="a" d="M133.3,210.384v1.042h-1.043v3.128H133.3v-1.043h1.043v-1.042h1.042v-1.043h-1.042v-2.085H133.3Z" transform="translate(-112.455 -201.002)"/><rect class="a" width="1.042" height="1.042" transform="translate(14.595 2.085)"/><path class="a" d="M112.557,210.573v1.042H113.6v1.043h1.042v-2.085h-2.085Z" transform="translate(-109.429 -201.191)"/><rect class="a" width="1.043" height="1.042" transform="translate(6.255 11.468)"/><path class="a" d="M129.232,216.731h-1.043v1.042h-1.043v1.043H126.1v4.17h2.085v-1.043h-1.043V220.9h1.043v-2.085h1.043v-2.085Z" transform="translate(-111.509 -202.136)"/><rect class="a" width="1.043" height="1.042" transform="translate(9.383 6.255)"/><rect class="a" width="1.042" height="1.042" transform="translate(11.468 6.255)"/><rect class="a" width="1.043" height="1.043" transform="translate(2.085 10.425)"/><path class="a" d="M117.294,220.426h-1.043v2.085h2.085v-1.042h-1.042Z" transform="translate(-109.996 -202.703)"/><rect class="a" width="1.042" height="1.043" transform="translate(17.723 26.063)"/><path class="a" d="M113.221,227.816h-3.127v5.213h5.213v-5.213h-2.086Zm1.043,2.085v2.085h-3.128v-3.128h3.128Z" transform="translate(-109.051 -203.838)"/><rect class="a" width="1.043" height="1.043" transform="translate(15.638 23.978)"/><rect class="a" width="1.043" height="1.043" transform="translate(3.128 15.638)"/><path class="a" d="M129.8,227.627v1.043h1.042v-2.085H129.8Z" transform="translate(-112.076 -203.649)"/><rect class="a" width="1.042" height="1.043" transform="translate(4.17 12.51)"/><rect class="a" width="1.043" height="1.042" transform="translate(8.34 17.723)"/><rect class="a" width="1.043" height="1.042" transform="translate(10.425 8.34)"/><rect class="a" width="1.042" height="1.042" transform="translate(4.17 14.595)"/><rect class="a" width="1.043" height="1.043" transform="translate(15.638 26.063)"/><path class="a" d="M140.317,200.72h-3.128v5.213H142.4V200.72h-2.085Zm1.042,2.086v2.085h-3.128v-3.128h3.128Z" transform="translate(-113.211 -199.678)"/><path class="a" d="M133.116,230.943v-3.127h-1.043v1.043h-1.043V229.9h1.043v1.043h-1.043v1.043h3.128v-1.043Z" transform="translate(-112.266 -203.838)"/><rect class="a" width="1.043" height="1.042" transform="translate(8.34 20.85)"/><path class="a" d="M112.179,205.933h3.128V200.72h-5.213v5.213h2.085Zm-1.043-2.086v-2.085h3.128v3.128h-3.128Z" transform="translate(-109.051 -199.678)"/><path class="a" d="M140.981,211.616h-1.043v-1.042H138.9v1.042h-2.085v1.043h1.043V213.7h-3.127v1.043h2.085v1.042h1.043v-1.042H138.9V213.7h2.085v-1.042h1.043v-1.043Z" transform="translate(-112.833 -201.191)"/><path class="a" d="M139.182,216.542V215.5h-1.043v3.127h-2.085v-2.085h-1.043v1.043H133.97v-1.043h-3.128v2.085H129.8v2.086h1.043V222.8H129.8v1.042h1.043v1.043h2.085v-1.043h-1.043v-2.085h2.086v5.213H137.1v-1.042h1.043v2.085h2.085v-1.043h-1.042v-2.085H137.1v-1.043h-2.085v-2.085H137.1V222.8h1.043v1.042h1.043V222.8h1.042v-1.043h-2.085v-1.042h-3.128V219.67h4.171v-1.043h1.042v-1.042h-1.042Zm-5.213,4.171h-2.086v-3.128h1.043v2.085h1.043Zm2.085,4.17v1.043h-1.043v-1.043Z" transform="translate(-112.076 -201.947)"/><path class="a" d="M137.853,230.279h-3.127v1.043h4.17v-1.043Z" transform="translate(-112.833 -204.216)"/><rect class="a" width="1.043" height="1.042" transform="translate(9.383 21.893)"/><rect class="a" width="1.042" height="1.042" transform="translate(17.723 28.148)"/><path class="a" d="M125.348,228.577h1.042v-1.042h-1.042v-1.043h1.042v-1.043h1.043v-1.042h-2.085v-1.042h-1.043v1.042h-1.043v-2.085h1.043V221.28h-1.043v-2.085h-1.042v2.085h-1.043v2.085h1.043v2.085h2.085v1.043h-1.043v2.085h2.085Z" transform="translate(-110.753 -202.514)"/><rect class="h" width="1.043" height="1.042" transform="translate(29.19 13.553)"/><path class="h" d="M142.212,199.489h-6.255v7.3h7.3v-7.3Zm0,2.085v4.171H137v-5.213h5.213Z" transform="translate(-113.022 -199.489)"/><path class="h" d="M142.969,209.342h-1.042v1.042h-1.043v1.042h2.085v1.043h1.043v-2.085h-1.043Z" transform="translate(-113.778 -201.002)"/><rect class="h" width="1.042" height="1.042" transform="translate(28.148 11.468)"/><path class="h" d="M143.158,219.005v2.085H144.2v-3.128h-2.085v1.043Z" transform="translate(-113.967 -202.325)"/><path class="h" d="M140.127,220.237h-4.17v1.042h3.128v1.042h2.085v-3.128h-1.043Z" transform="translate(-113.022 -202.514)"/><path class="h" d="M140.127,223.932v1.042h-1.043v-1.042h-1.042v-1.043h-2.085v2.085h2.085v1.042h2.085V228.1h1.043v1.042h-2.085v1.043h2.085v1.043h1.042v-1.043h1.043v-1.043h-1.043v-2.085H141.17v-1.043h2.085v-2.085h-1.043v-1.043H141.17v1.043Z" transform="translate(-113.022 -203.082)"/><path class="h" d="M139.463,201.952H138.42v3.128h3.128v-3.128h-2.085Z" transform="translate(-113.4 -199.867)"/><path class="h" d="M140.695,209.768h.625v-1.043h-1.042v.522h-.626v1.042h1.043Z" transform="translate(-113.589 -200.907)"/><path class="h" d="M139.652,214.268v1.043h1.043V217.4h1.042v-3.127h-2.085Z" transform="translate(-113.589 -201.758)"/><path class="h" d="M137.189,218.627h2.085V215.5h-1.042v1.042h-1.043v2.085Z" transform="translate(-113.211 -201.947)"/><path class="h" d="M136.811,231.51h-2.085v1.043h4.17V231.51h-2.085Z" transform="translate(-112.833 -204.405)"/><rect class="h" width="1.043" height="1.043" transform="translate(22.935 22.935)"/><path class="h" d="M134.726,211.427h1.042v1.043h-1.042v1.042h3.127v-1.042h-1.043v-1.043H138.9v-1.042h-1.042v-1.042h-1.043v1.042h-1.043v-1.042h-1.042v2.085Z" transform="translate(-112.833 -201.002)"/><path class="h" d="M132.738,214.932H131.7V211.8h-1.043v2.085h-2.085v2.085h1.043v2.085h1.042v-2.085h3.128v1.042h1.042v-1.042h1.043v-1.042H133.78V213.89h-1.043Z" transform="translate(-111.887 -201.38)"/><path class="h" d="M132.262,210.006v1.042H133.3v-2.085h1.043v-2.085H133.3v1.042h-1.043v2.085Z" transform="translate(-112.455 -200.623)"/><path class="h" d="M133.3,219.005v-1.043h-1.043v3.128h2.085v-1.042H133.3Z" transform="translate(-112.455 -202.325)"/><path class="h" d="M131.884,232.742h-1.043v1.042H129.8v1.042h3.128v-1.042h1.043v-1.042h-2.085Z" transform="translate(-112.076 -204.594)"/><path class="h" d="M130.842,201.574h1.043v-1.043h2.085v-1.042H129.8v1.042h1.042Z" transform="translate(-112.076 -199.489)"/><rect class="h" width="1.043" height="1.042" transform="translate(18.765 6.255)"/><path class="h" d="M131.031,228.1h1.043v-1.043h1.043v3.127h1.043v-1.043h4.17v-2.085h-1.042V228.1h-3.127v-5.213h-2.085v2.085h1.043v1.042h-2.085V228.1Z" transform="translate(-112.266 -203.082)"/><rect class="h" width="1.043" height="1.043" transform="translate(18.765 26.063)"/><path class="h" d="M129.9,230.662V229.62h-1.042v-1.043H129.9v-1.042h-1.042v-2.085H129.9v-1.042h-1.042v-1.042H129.9V221.28h-1.042v-2.085h-1.043v2.085h-1.043v1.042h1.043v1.043h-2.085v1.042h2.085v1.042h-1.043v1.043h1.043v1.043h-1.043v1.042h1.043v1.043h-1.043v-1.043h-3.128v1.043h1.043v1.043h-1.043v2.085h1.043V231.7h4.17v-1.042Z" transform="translate(-111.131 -202.514)"/><path class="h" d="M127.811,206.786h1.043v-1.042H129.9V204.7h3.128v-3.127h-1.043v2.085h-1.043v-1.043h-3.128v-1.042h1.043v-1.043h-1.043v-1.042h-1.043v1.042h-1.042v-1.042h-2.085v1.042h1.043v1.043h-1.043v2.085h1.043v-1.043h1.043v-1.042h1.042v1.042h-1.042v1.043h2.085V204.7h-1.043v1.043h1.043Z" transform="translate(-111.131 -199.489)"/><path class="h" d="M128.379,211.427h1.043v-1.042h1.042v-1.042h-3.128v1.042h1.043Z" transform="translate(-111.698 -201.002)"/><path class="h" d="M127.147,206.879H126.1v2.085h1.042v-2.085Z" transform="translate(-111.509 -200.623)"/><path class="h" d="M127.147,217.774h1.043v-1.042H126.1v2.085h1.042Z" transform="translate(-111.509 -202.136)"/><rect class="h" width="1.042" height="1.043" transform="translate(14.595 23.978)"/><path class="h" d="M125.726,221.28v-2.085h-2.085v2.085h1.043v1.042h-1.043v2.085h1.043v-1.042h1.043V221.28Z" transform="translate(-111.131 -202.514)"/><path class="h" d="M123.452,207.732h1.043v-2.085H122.41v1.043h1.042Z" transform="translate(-110.942 -200.434)"/><path class="h" d="M124.495,211.616V213.7H122.41v1.043h1.042v2.085h1.043v-2.085h1.043v-2.085h2.085v-1.043H126.58v-1.042h-3.128v1.042Z" transform="translate(-110.942 -201.191)"/><rect class="h" width="1.042" height="1.043" transform="translate(11.468 15.638)"/><path class="h" d="M121.372,226.114h1.043v-1.043H120.33v-2.085h-1.043V220.9h1.043v-2.085h-1.043v1.043h-1.043V220.9H117.2v1.042h-2.085v-2.085h1.043V220.9H117.2v-1.042h1.043v-2.085H117.2v1.043h-2.085v-2.085h-1.043v1.042h-1.042v1.043h-1.043v-1.043h-3.128v1.043h2.085v1.043h-2.085v4.17H109.9V220.9h2.085v1.042h1.043V220.9h1.042v2.085h1.043v1.042H117.2v-1.042h1.043v1.042h1.043v1.042h-1.043v-1.042H117.2v2.085h3.128v1.043H117.2v5.212h3.128v-2.085h-1.043v1.042h-1.043V228.2h1.043v1.043h1.043V228.2h1.042v-2.085Z" transform="translate(-108.862 -202.136)"/><path class="h" d="M122.221,200.531v-1.042h-1.043v2.085h1.043Z" transform="translate(-110.753 -199.489)"/><path class="h" d="M121.178,212.658h1.043v-2.085h-1.043v2.085Z" transform="translate(-110.753 -201.191)"/><path class="h" d="M120.8,206.311v-2.085h1.043v-1.043h-3.128v1.043h1.043v1.042h-1.043v2.085h1.043v-1.042Z" transform="translate(-110.375 -200.056)"/><path class="h" d="M120.989,216.353v-2.085h-1.043V217.4h1.043Z" transform="translate(-110.564 -201.758)"/><rect class="h" width="1.043" height="1.043" transform="translate(8.34 1.042)"/><rect class="h" width="1.042" height="1.042" transform="translate(7.298 14.595)"/><path class="h" d="M114.075,226.584h-5.213v7.3h7.3v-7.3h-2.085Zm1.043,2.085v4.171H109.9v-5.213h5.213Z" transform="translate(-108.862 -203.649)"/><path class="h" d="M113.41,205.08h1.042v-3.128h-3.128v3.128h2.085Z" transform="translate(-109.24 -199.867)"/><path class="h" d="M113.032,215.218h1.043v-1.042h-1.043v-1.043h1.043v1.043H117.2v-2.085h1.042v-2.086h1.043v-1.042h1.043v1.042h1.042v-2.085H120.33v-1.042h-1.043v1.042h-1.043v1.043H117.2v2.085h-1.043v-2.085h-1.042v1.042h-1.043v2.086h-1.043v-1.043H111.99v1.043h-1.043v-1.043h1.043v-1.043h2.085v-1.042h-3.128v1.042H109.9v-1.042h-1.043v3.128H109.9v1.042h2.085v1.043h-3.128v1.042h3.128v1.043h1.042Zm2.086-3.127h1.042v1.042h-1.042Z" transform="translate(-108.862 -200.623)"/><path class="h" d="M112.368,229.048h-1.043v3.127h3.128v-3.127h-2.085Z" transform="translate(-109.24 -204.027)"/><path class="h" d="M111.325,223.932v1.042h2.085v-1.042h-1.043v-1.043h-1.043Z" transform="translate(-109.24 -203.082)"/><path class="h" d="M110.947,206.786h5.213v-7.3h-7.3v7.3h2.085ZM109.9,204.7v-4.171h5.213v5.213H109.9Z" transform="translate(-108.862 -199.489)"/><path class="h" d="M143.347,234.827h1.043v-2.085h-1.043v2.085Z" transform="translate(-114.157 -204.594)"/><path class="h" d="M139.652,234.827h2.085v-1.042h-1.042v-1.042h-1.043v2.085Z" transform="translate(-113.589 -204.594)"/><rect class="h" width="1.043" height="1.042" transform="translate(23.978 29.19)"/></g></g><g transform="translate(117.159 7.331)"><path class="g" d="M138.566,16.138V14.331l1.492-.538V10.97l-1.492-.538V8.661l7.106,2.725v2.026Zm3.025-4.619v1.726l2.4-.863Z" transform="translate(-138.434 -8.661)"/><path class="g" d="M141.039,23.748a2.445,2.445,0,0,1-2.629-2.32A1.693,1.693,0,0,1,139.075,20h-.533V18.469h7.309v1.584h-2.807a1.7,1.7,0,0,1,.615,1.376A2.442,2.442,0,0,1,141.039,23.748Zm-.005-3.761a1.066,1.066,0,1,0,1.143,1.061A1.063,1.063,0,0,0,141.034,19.988Z" transform="translate(-138.41 -10.167)"/><path class="g" d="M141.034,31.052a2.7,2.7,0,1,1,2.625-2.706A2.592,2.592,0,0,1,141.034,31.052Zm0-3.782a1.081,1.081,0,1,0,1.143,1.076A1.072,1.072,0,0,0,141.034,27.27Z" transform="translate(-138.41 -11.269)"/><path class="g" d="M141.835,38.055h-3.269V36.466h2.705c.589,0,.918-.295.918-.786,0-.442-.3-.808-.944-.808h-2.68V33.283h4.98v1.523h-.625a1.6,1.6,0,0,1,.762,1.482A1.72,1.72,0,0,1,141.835,38.055Z" transform="translate(-138.434 -12.441)"/><path class="g" d="M141.835,48.4h-3.269V46.812h2.705c.589,0,.918-.294.918-.791,0-.437-.3-.807-.944-.807h-2.68V43.625h2.705c.589,0,.918-.3.918-.787,0-.442-.3-.808-.944-.808h-2.68V40.441h4.98v1.524h-.625a1.6,1.6,0,0,1,.762,1.482,1.693,1.693,0,0,1-.833,1.518,1.876,1.876,0,0,1-1.015,3.436Z" transform="translate(-138.434 -13.54)"/><path class="g" d="M138.542,56.339V54.8h.538a1.709,1.709,0,0,1-.67-1.431,2.645,2.645,0,0,1,5.249,0,1.71,1.71,0,0,1-.675,1.427h.538v1.538Zm2.492-3.65a1.066,1.066,0,1,0,1.143,1.061A1.063,1.063,0,0,0,141.034,52.69Z" transform="translate(-138.41 -15.17)"/><path class="g" d="M141.835,63.627h-3.269V62.039h2.705c.589,0,.918-.3.918-.787,0-.441-.3-.808-.944-.808h-2.68V58.855h4.98v1.524h-.625a1.6,1.6,0,0,1,.762,1.482A1.72,1.72,0,0,1,141.835,63.627Z" transform="translate(-138.434 -16.367)"/></g><g transform="translate(107.399 7.234)"><path class="f" d="M130.06,10.378V9.693h-3.03V8.546h7.106V9.693h-2.99v.7l2.99,2.67v1.482l-3.466-3.2-3.64,3.416V13.206Z" transform="translate(-126.902 -8.546)"/><path class="f" d="M127.007,21.18V20.119h.583a1.842,1.842,0,0,1-.711-1.527,2.562,2.562,0,0,1,5.117,0,1.847,1.847,0,0,1-.715,1.527h.589V21.18Zm2.431-3.928A1.469,1.469,0,1,0,131,18.718,1.456,1.456,0,0,0,129.438,17.252Z" transform="translate(-126.879 -9.715)"/><path class="f" d="M131.882,27.341l-1.05-.254a1.876,1.876,0,0,0,.178-.807,1.156,1.156,0,0,0-1.3-1.158H127.03V24.062h4.863v1.05h-.549a1.626,1.626,0,0,1,.675,1.411A2.123,2.123,0,0,1,131.882,27.341Z" transform="translate(-126.902 -10.928)"/><path class="f" d="M130.9,32.545V30.682h-2.117c-.654,0-.908.345-.908.772a1.949,1.949,0,0,0,.33.98l-.847.421a2.623,2.623,0,0,1-.483-1.492c0-1.1.6-1.746,1.889-1.746H130.9v-.969h.965v.969h1.471v1.066H131.87v1.863Z" transform="translate(-126.879 -11.632)"/></g><g transform="translate(68.384 54.867)"><g transform="translate(0.487 0.487)"><g class="i"><g transform="translate(0 0)"><circle class="g" cx="22.307" cy="22.307" r="22.307"/></g></g></g><g class="j"><circle class="m" cx="22.795" cy="22.795" r="22.795"/><circle class="a" cx="22.795" cy="22.795" r="21.795"/></g></g><g transform="translate(100.167 100.428)"><g transform="translate(0.755)"><path class="f" d="M142,119.885V119.5h-1.459v-.375h3.254v.375h-1.441v.393l1.441,1.35v.484l-1.6-1.53-1.657,1.629v-.51Z" transform="translate(-122.5 -118.718)"/><path class="f" d="M140.53,124.875v-.347h.328a.972.972,0,0,1-.372-.8,1.146,1.146,0,0,1,2.29,0,.977.977,0,0,1-.372.8h.328v.347Zm1.1-1.9a.787.787,0,1,0,.819.789A.783.783,0,0,0,141.631,122.977Z" transform="translate(-122.492 -119.255)"/><path class="f" d="M142.709,127.76l-.342-.084a.838.838,0,0,0,.088-.381.61.61,0,0,0-.685-.591h-1.232v-.346h2.2v.344h-.309a.771.771,0,0,1,.354.654A.935.935,0,0,1,142.709,127.76Z" transform="translate(-122.5 -119.828)"/><path class="f" d="M142.418,130.249V129.3h-1.111c-.345,0-.5.182-.5.437a.8.8,0,0,0,.156.463l-.262.163a1.064,1.064,0,0,1-.218-.654c0-.473.26-.755.813-.755h1.118v-.482h.313v.482h.7v.346h-.7v.951Z" transform="translate(-122.492 -120.153)"/><path class="f" d="M140.538,131.756v-.349h2.2v.349Z" transform="translate(-122.5 -120.604)"/><path class="f" d="M141.9,134.9h-1.365v-.347h1.25a.594.594,0,0,0,.664-.634.648.648,0,0,0-.674-.675h-1.241v-.349h2.2v.344h-.313a.87.87,0,0,1,.358.742A.852.852,0,0,1,141.9,134.9Z" transform="translate(-122.5 -120.831)"/><path class="f" d="M141.847,138.231v.318l.892.849v.435l-1.036-1-1.165,1.017v-.439l.992-.863v-.317h-.992v-.349h3.348v.349Z" transform="translate(-122.5 -121.598)"/><path class="f" d="M141.448,142.871a1,1,0,0,1,0-2h1.282v.346h-1.25a.652.652,0,1,0,0,1.3h1.25v.349Z" transform="translate(-122.492 -122.057)"/><path class="f" d="M140.538,144.628v-.349h3.348v.349Z" transform="translate(-122.5 -122.58)"/><path class="f" d="M140.538,146.112v-.349h3.348v.349Z" transform="translate(-122.5 -122.808)"/><path class="f" d="M140.53,149.3v-.346h.328a.972.972,0,0,1-.372-.8,1.146,1.146,0,0,1,2.29,0,.977.977,0,0,1-.372.8h.328v.346Zm1.1-1.9a.787.787,0,1,0,.819.789A.783.783,0,0,0,141.631,147.4Z" transform="translate(-122.492 -123.005)"/><path class="f" d="M141.9,152.79h-1.365v-.347h1.25a.594.594,0,0,0,.664-.634.648.648,0,0,0-.674-.675h-1.241v-.349h2.2v.344h-.313a.869.869,0,0,1,.358.742A.853.853,0,0,1,141.9,152.79Z" transform="translate(-122.5 -123.579)"/><path class="f" d="M140.538,154.547V154.2h2.2v.349Z" transform="translate(-122.5 -124.103)"/><path class="f" d="M141.9,159.345h-1.365V159h1.25a.6.6,0,0,0,.664-.637.647.647,0,0,0-.674-.674h-1.241v-.346h1.25a.594.594,0,0,0,.664-.635.648.648,0,0,0-.674-.675h-1.241v-.349h2.2v.344h-.313a.958.958,0,0,1-.1,1.568.9.9,0,0,1,.463.83A.853.853,0,0,1,141.9,159.345Z" transform="translate(-122.5 -124.331)"/><path class="f" d="M141.847,162.984v.318l.892.849v.435l-1.036-1-1.165,1.016v-.439l.992-.863v-.317h-.992v-.349h3.348v.349Z" transform="translate(-122.5 -125.398)"/><path class="f" d="M141.631,167.665a1.159,1.159,0,1,1,1.144-1.161A1.127,1.127,0,0,1,141.631,167.665Zm0-1.965a.8.8,0,1,0,.819.8A.79.79,0,0,0,141.631,165.7Z" transform="translate(-122.492 -125.814)"/><path class="f" d="M142.135,170.405a1.371,1.371,0,0,0,.207-.72c0-.314-.133-.521-.347-.521-.183,0-.274.16-.309.449l-.032.26c-.06.467-.254.74-.615.74s-.6-.275-.662-.719l-.727-.228V169.3l.714.234a1.472,1.472,0,0,1,.277-.814l.26.162a1.154,1.154,0,0,0-.24.762c0,.372.124.607.356.607.177,0,.284-.149.321-.46l.03-.263c.06-.5.281-.727.609-.727.416,0,.667.351.667.879a1.61,1.61,0,0,1-.24.874Z" transform="translate(-122.364 -126.333)"/><path class="f" d="M141.448,173.756a1,1,0,0,1,0-2h1.282v.346h-1.25a.652.652,0,1,0,0,1.3h1.25v.35Z" transform="translate(-122.492 -126.799)"/><path class="f" d="M140.538,175.513v-.349h3.348v.349Z" transform="translate(-122.5 -127.322)"/><path class="f" d="M140.538,177v-.349h3.348V177Z" transform="translate(-122.5 -127.55)"/><path class="f" d="M140.53,180.186v-.346h.328a.972.972,0,0,1-.372-.8,1.146,1.146,0,0,1,2.29,0,.977.977,0,0,1-.372.8h.328v.346Zm1.1-1.9a.786.786,0,1,0,.819.789A.784.784,0,0,0,141.631,178.289Z" transform="translate(-122.492 -127.747)"/><path class="f" d="M142.709,183.073l-.342-.084a.843.843,0,0,0,.088-.381.61.61,0,0,0-.685-.591h-1.232v-.347h2.2v.344h-.309a.769.769,0,0,1,.354.653A.936.936,0,0,1,142.709,183.073Z" transform="translate(-122.5 -128.321)"/><path class="f" d="M140.538,184.411v-.349h2.2v.349Z" transform="translate(-122.5 -128.688)"/><path class="g" d="M135.41,121.426l1.58.484v.634l-2.252-.762v-.692l1.523-.5-1.523-.5v-.689l2.252-.762v.647l-1.574.481,1.574.5v.64Z" transform="translate(-121.609 -118.644)"/><path class="g" d="M135.41,126.3l1.58.484v.634l-2.252-.762v-.692l1.523-.5-1.523-.5v-.689l2.252-.762v.647l-1.574.481,1.574.5v.64Z" transform="translate(-121.609 -119.392)"/><path class="g" d="M135.41,131.172l1.58.483v.635l-2.252-.763v-.692l1.523-.5-1.523-.5v-.688l2.252-.763v.647l-1.574.481,1.574.5v.64Z" transform="translate(-121.609 -120.14)"/><path class="g" d="M135.123,134.123a.452.452,0,1,1,.449-.449A.461.461,0,0,1,135.123,134.123Z" transform="translate(-121.599 -120.882)"/><path class="g" d="M134.738,135.593v-.607h2.252v.607Zm2.99.082a.387.387,0,1,1,.39-.389A.385.385,0,0,1,137.728,135.676Z" transform="translate(-121.609 -121.14)"/><path class="g" d="M136.353,138.17a1.825,1.825,0,0,0,.184-.719c0-.23-.081-.346-.2-.346s-.163.163-.193.367l-.03.2c-.075.488-.294.76-.675.76-.466,0-.765-.381-.765-1.034a1.8,1.8,0,0,1,.265-1l.46.24a1.318,1.318,0,0,0-.221.767c0,.281.08.416.212.416.109,0,.169-.113.207-.375l.026-.184c.072-.521.3-.778.683-.778.463,0,.737.357.737.951a2.024,2.024,0,0,1-.214.942Z" transform="translate(-121.599 -121.37)"/><path class="g" d="M136.441,141.055v-.816h-.823c-.281,0-.384.149-.384.338a.879.879,0,0,0,.146.423l-.473.223a1.254,1.254,0,0,1-.238-.747c0-.558.316-.844.9-.844h.872V139.2h.539v.434h.67v.607h-.67v.816Z" transform="translate(-121.599 -121.8)"/><path class="g" d="M134.727,144.3V143.7h.249a.827.827,0,0,1-.307-.674,1.19,1.19,0,0,1,2.371,0,.822.822,0,0,1-.309.674h.249v.593Zm1.128-1.736a.582.582,0,1,0,.62.582A.58.58,0,0,0,135.855,142.56Z" transform="translate(-121.599 -122.221)"/><path class="g" d="M136.172,147.722h-1.434v-.608h1.239c.325,0,.5-.162.5-.438a.462.462,0,0,0-.509-.477h-1.234v-.607h2.252v.592h-.265a.753.753,0,0,1,.325.662A.839.839,0,0,1,136.172,147.722Z" transform="translate(-121.609 -122.781)"/><path class="g" d="M135.855,151.309a1.116,1.116,0,0,1-1.186-1.09.826.826,0,0,1,.307-.675h-.249v-.593h3.348v.6h-1.33a.813.813,0,0,1,.295.66A1.116,1.116,0,0,1,135.855,151.309Zm0-1.784a.581.581,0,1,0,.62.579A.579.579,0,0,0,135.855,149.526Z" transform="translate(-121.599 -123.297)"/><path class="g" d="M135.688,154.545a1.067,1.067,0,0,1,0-2.131h1.292v.606h-1.239c-.361,0-.507.2-.507.46s.146.46.507.46h1.239v.6Z" transform="translate(-121.599 -123.829)"/><path class="g" d="M134.738,156.384v-.607h3.348v.607Z" transform="translate(-121.609 -124.345)"/><path class="g" d="M136.189,157.965v.214l.8.635v.743l-1.06-.887-1.193.894v-.746l.911-.648v-.2h-.911v-.607h3.348v.607Z" transform="translate(-121.609 -124.588)"/><path class="g" d="M134.727,162.539v-.593h.249a.827.827,0,0,1-.307-.674,1.19,1.19,0,0,1,2.371,0,.822.822,0,0,1-.309.674h.249v.593Zm1.128-1.736a.583.583,0,1,0,.62.582A.58.58,0,0,0,135.855,160.8Z" transform="translate(-121.599 -125.021)"/><path class="g" d="M137,165.373l-.6-.091a1,1,0,0,0,.072-.367.451.451,0,0,0-.507-.475h-1.227v-.607h2.252v.589h-.246a.71.71,0,0,1,.306.635A.916.916,0,0,1,137,165.373Z" transform="translate(-121.609 -125.582)"/><path class="g" d="M136.441,167.9v-.817h-.823c-.281,0-.384.149-.384.337a.879.879,0,0,0,.146.423l-.473.223a1.254,1.254,0,0,1-.238-.747c0-.558.316-.844.9-.844h.872v-.435h.539v.435h.67v.607h-.67v.817Z" transform="translate(-121.599 -125.922)"/><path class="g" d="M135.123,169.866a.452.452,0,1,1,.449-.449A.461.461,0,0,1,135.123,169.866Z" transform="translate(-121.599 -126.37)"/><path class="g" d="M134.738,171.336v-.606h2.252v.606Zm2.99.082a.387.387,0,1,1,.39-.389A.385.385,0,0,1,137.728,171.419Z" transform="translate(-121.609 -126.628)"/><path class="g" d="M136.353,173.914a1.825,1.825,0,0,0,.184-.719c0-.23-.081-.346-.2-.346s-.163.163-.193.367l-.03.2c-.075.488-.294.76-.675.76-.466,0-.765-.381-.765-1.034a1.8,1.8,0,0,1,.265-1l.46.24a1.319,1.319,0,0,0-.221.768c0,.281.08.416.212.416.109,0,.169-.113.207-.375l.026-.183c.072-.521.3-.779.683-.779.463,0,.737.358.737.951a2.024,2.024,0,0,1-.214.942Z" transform="translate(-121.599 -126.857)"/><path class="g" d="M136.441,176.8v-.816h-.823c-.281,0-.384.149-.384.338a.879.879,0,0,0,.146.423l-.473.223a1.253,1.253,0,0,1-.238-.746c0-.559.316-.844.9-.844h.872v-.435h.539v.435h.67v.606h-.67v.816Z" transform="translate(-121.599 -127.288)"/><path class="g" d="M134.727,180.041v-.592h.249a.827.827,0,0,1-.307-.674,1.19,1.19,0,0,1,2.371,0,.822.822,0,0,1-.309.674h.249v.592Zm1.128-1.736a.582.582,0,1,0,.62.582A.58.58,0,0,0,135.855,178.3Z" transform="translate(-121.599 -127.709)"/><path class="g" d="M136.172,183.465h-1.434v-.607h1.239c.325,0,.5-.163.5-.439a.462.462,0,0,0-.509-.477h-1.234v-.607h2.252v.592h-.265a.753.753,0,0,1,.325.662A.839.839,0,0,1,136.172,183.465Z" transform="translate(-121.609 -128.269)"/><path class="g" d="M135.855,187.052a1.117,1.117,0,0,1-1.186-1.09.823.823,0,0,1,.307-.674h-.249V184.7h3.348v.605h-1.33a.81.81,0,0,1,.295.659A1.116,1.116,0,0,1,135.855,187.052Zm0-1.784a.582.582,0,1,0,.62.579A.579.579,0,0,0,135.855,185.269Z" transform="translate(-121.599 -128.785)"/><path class="g" d="M135.688,190.289a1.067,1.067,0,0,1,0-2.131h1.292v.606h-1.239c-.361,0-.507.2-.507.46s.146.46.507.46h1.239v.6Z" transform="translate(-121.599 -129.317)"/><path class="g" d="M134.738,192.127v-.607h3.348v.607Z" transform="translate(-121.609 -129.833)"/><path class="f" d="M128.93,121.1v-.346h.328a.97.97,0,0,1-.372-.8,1.146,1.146,0,0,1,2.29,0,.977.977,0,0,1-.372.8h.328v.346Zm1.1-1.9a.786.786,0,1,0,.819.789A.784.784,0,0,0,130.032,119.206Z" transform="translate(-120.711 -118.676)"/><path class="f" d="M130.8,124.294h1.474v.346H128.93v-.346h.328a.97.97,0,0,1-.372-.8,1.146,1.146,0,0,1,2.29,0A.977.977,0,0,1,130.8,124.294Zm-.772-1.551a.787.787,0,1,0,.819.789A.784.784,0,0,0,130.032,122.743Z" transform="translate(-120.711 -119.219)"/><path class="f" d="M131.109,127.526l-.342-.084a.844.844,0,0,0,.089-.381.611.611,0,0,0-.686-.591h-1.232v-.347h2.2v.345h-.31a.769.769,0,0,1,.354.653A.936.936,0,0,1,131.109,127.526Z" transform="translate(-120.719 -119.792)"/><path class="f" d="M130.04,130.335a1.284,1.284,0,0,1-.131-.007v-1.765a.748.748,0,0,0-.718.779,1.022,1.022,0,0,0,.277.7l-.238.185a1.234,1.234,0,0,1-.344-.9,1.146,1.146,0,0,1,2.29-.021A1.05,1.05,0,0,1,130.04,130.335Zm.15-1.767v1.414a.69.69,0,0,0,.677-.688A.718.718,0,0,0,130.19,128.569Z" transform="translate(-120.711 -120.112)"/><path class="f" d="M130.665,133.041a1.379,1.379,0,0,0,.207-.72c0-.315-.132-.521-.346-.521-.184,0-.274.161-.309.449l-.033.26c-.06.467-.253.739-.614.739-.418,0-.681-.376-.681-.969a1.543,1.543,0,0,1,.282-.918l.261.16a1.158,1.158,0,0,0-.24.763c0,.372.123.606.355.606.177,0,.283-.148.32-.46l.031-.262c.06-.5.281-.727.609-.727.416,0,.667.351.667.879a1.61,1.61,0,0,1-.24.874Z" transform="translate(-120.711 -120.596)"/><path class="f" d="M128.938,134.758v-.349h2.2v.349Zm2.982.072a.242.242,0,0,1-.244-.246.245.245,0,0,1,.491,0A.244.244,0,0,1,131.92,134.83Z" transform="translate(-120.719 -121.054)"/><path class="f" d="M130.3,137.912h-1.364v-.346h1.251a.6.6,0,0,0,.664-.635.648.648,0,0,0-.674-.675h-1.242v-.349h2.2v.344h-.314a.87.87,0,0,1,.358.742A.853.853,0,0,1,130.3,137.912Z" transform="translate(-120.719 -121.295)"/><path class="f" d="M130.8,141.027h1.474v.346H128.93v-.346h.328a.973.973,0,0,1-.372-.8,1.146,1.146,0,0,1,2.29,0A.98.98,0,0,1,130.8,141.027Zm-.772-1.551a.786.786,0,1,0,.819.788A.784.784,0,0,0,130.032,139.476Z" transform="translate(-120.711 -121.788)"/><path class="f" d="M130.04,144.786c-.045,0-.091,0-.131-.006v-1.765a.747.747,0,0,0-.718.778,1.022,1.022,0,0,0,.277.7l-.238.185a1.234,1.234,0,0,1-.344-.9,1.146,1.146,0,0,1,2.29-.02A1.05,1.05,0,0,1,130.04,144.786Zm.15-1.767v1.414a.689.689,0,0,0,.677-.688A.718.718,0,0,0,130.19,143.02Z" transform="translate(-120.711 -122.331)"/><path class="f" d="M130.032,149.88a1.1,1.1,0,0,1-1.146-1.1.975.975,0,0,1,.37-.8h-.326v-.349h3.348v.349h-1.471a.976.976,0,0,1,.369.8A1.1,1.1,0,0,1,130.032,149.88Zm0-1.926a.785.785,0,1,0,.819.784A.778.778,0,0,0,130.032,147.954Z" transform="translate(-120.711 -123.094)"/><path class="f" d="M130.04,153.1a1.284,1.284,0,0,1-.131-.007v-1.765a.748.748,0,0,0-.718.779,1.02,1.02,0,0,0,.277.7l-.238.186a1.236,1.236,0,0,1-.344-.9,1.146,1.146,0,0,1,2.29-.021A1.05,1.05,0,0,1,130.04,153.1Zm.15-1.767v1.414a.69.69,0,0,0,.677-.689A.717.717,0,0,0,130.19,151.329Z" transform="translate(-120.711 -123.607)"/><path class="f" d="M128.938,154.708v-.349h3.348v.349Z" transform="translate(-120.719 -124.127)"/><path class="f" d="M128.938,156.179v-.349h2.2v.349Zm2.982.072a.242.242,0,0,1-.244-.246.245.245,0,0,1,.491,0A.244.244,0,0,1,131.92,156.251Z" transform="translate(-120.719 -124.343)"/><path class="f" d="M131.109,158.731l-.342-.084a.844.844,0,0,0,.089-.381.611.611,0,0,0-.686-.591h-1.232v-.346h2.2v.344h-.31a.77.77,0,0,1,.354.653A.936.936,0,0,1,131.109,158.731Z" transform="translate(-120.719 -124.583)"/><path class="f" d="M130.818,161.22v-.951h-1.111c-.344,0-.5.182-.5.438a.8.8,0,0,0,.157.463l-.263.163a1.065,1.065,0,0,1-.218-.653c0-.474.261-.756.813-.756h1.118v-.481h.314v.481h.7v.346h-.7v.951Z" transform="translate(-120.711 -124.908)"/><path class="f" d="M128.938,162.714v-.35h2.2v.35Zm2.982.071a.241.241,0,0,1-.244-.246.245.245,0,0,1,.491,0A.244.244,0,0,1,131.92,162.785Z" transform="translate(-120.719 -125.346)"/><path class="f" d="M128.938,164.212v-.349h3.348v.349Z" transform="translate(-120.719 -125.587)"/><path class="f" d="M130.3,169.01h-1.364v-.346h1.251a.6.6,0,0,0,.664-.637.648.648,0,0,0-.674-.674h-1.242v-.347h1.251a.594.594,0,0,0,.664-.634.649.649,0,0,0-.674-.675h-1.242v-.349h2.2v.344h-.314a.959.959,0,0,1-.1,1.568.894.894,0,0,1,.463.83A.853.853,0,0,1,130.3,169.01Z" transform="translate(-120.719 -125.815)"/><path class="f" d="M128.938,171.057v-.349h2.2v.349Zm2.982.072a.242.242,0,0,1-.244-.246.245.245,0,0,1,.491,0A.244.244,0,0,1,131.92,171.129Z" transform="translate(-120.719 -126.627)"/><path class="f" d="M130.536,173.649a1.38,1.38,0,0,0,.207-.721c0-.314-.132-.521-.346-.521-.184,0-.274.16-.309.449l-.033.261c-.06.466-.253.739-.614.739s-.6-.275-.662-.719l-.728-.227v-.363l.714.234a1.482,1.482,0,0,1,.277-.813l.261.161a1.156,1.156,0,0,0-.24.762c0,.372.123.607.356.607.177,0,.283-.149.32-.46l.031-.263c.06-.5.281-.727.609-.727.416,0,.667.351.667.879a1.61,1.61,0,0,1-.24.874Z" transform="translate(-120.583 -126.831)"/><path class="f" d="M130.818,176.473v-.951h-1.111c-.344,0-.5.182-.5.438a.8.8,0,0,0,.157.463l-.263.163a1.065,1.065,0,0,1-.218-.653c0-.474.261-.756.813-.756h1.118V174.7h.314v.481h.7v.346h-.7v.951Z" transform="translate(-120.711 -127.25)"/><path class="f" d="M128.938,177.967v-.349h2.2v.349Zm2.982.072a.242.242,0,0,1-.244-.246.245.245,0,0,1,.491,0A.244.244,0,0,1,131.92,178.039Z" transform="translate(-120.719 -127.688)"/><path class="f" d="M131.109,180.519l-.342-.084a.841.841,0,0,0,.089-.381.611.611,0,0,0-.686-.591h-1.232v-.346h2.2v.344h-.31a.769.769,0,0,1,.354.653A.934.934,0,0,1,131.109,180.519Z" transform="translate(-120.719 -127.929)"/><path class="f" d="M129.179,181.537a.29.29,0,1,1,.291-.29A.3.3,0,0,1,129.179,181.537Z" transform="translate(-120.711 -128.211)"/><path class="f" d="M121.8,119.885V119.5h-1.46v-.375h3.256v.375h-1.442v.393l1.442,1.35v.484l-1.6-1.53-1.657,1.629v-.51Z" transform="translate(-119.398 -118.718)"/><path class="f" d="M120.329,124.875v-.347h.328a.972.972,0,0,1-.372-.8,1.146,1.146,0,0,1,2.29,0,.977.977,0,0,1-.372.8h.328v.347Zm1.1-1.9a.787.787,0,1,0,.819.789A.784.784,0,0,0,121.431,122.977Z" transform="translate(-119.39 -119.255)"/><path class="f" d="M119.228,126.51v-.383l1.416.82,1.724-1.012v.389l-1.381.821,1.381.776v.381Z" transform="translate(-119.228 -119.763)"/><path class="f" d="M120.337,129.716v-.349h2.2v.349Z" transform="translate(-119.398 -120.29)"/><path class="f" d="M121.271,132.993a1.1,1.1,0,0,1-1.145-1.1.973.973,0,0,1,.369-.8h-1.255v-.349h3.131v.349h-.325a.972.972,0,0,1,.37.8A1.1,1.1,0,0,1,121.271,132.993Zm0-1.926a.785.785,0,1,0,.819.784A.778.778,0,0,0,121.271,131.067Z" transform="translate(-119.23 -120.501)"/><path class="f" d="M121.646,136.206v.318l.893.849v.435l-1.037-1-1.165,1.017v-.439l.993-.863v-.317h-.993v-.349h3.348v.349Z" transform="translate(-119.398 -121.287)"/><path class="f" d="M120.329,140.819v-.346h.328a.973.973,0,0,1-.372-.8,1.146,1.146,0,0,1,2.29,0,.978.978,0,0,1-.372.8h.328v.346Zm1.1-1.9a.786.786,0,1,0,.819.788A.784.784,0,0,0,121.431,138.922Z" transform="translate(-119.39 -121.703)"/><path class="f" d="M122.509,143.7l-.342-.083a.84.84,0,0,0,.088-.381.611.611,0,0,0-.686-.592h-1.232V142.3h2.2v.344h-.309a.773.773,0,0,1,.354.654A.943.943,0,0,1,122.509,143.7Z" transform="translate(-119.398 -122.276)"/><path class="f" d="M122.218,146.194v-.951h-1.112c-.344,0-.5.182-.5.438a.8.8,0,0,0,.157.462l-.263.163a1.065,1.065,0,0,1-.218-.654c0-.473.26-.755.813-.755h1.118v-.482h.313v.482h.7v.346h-.7v.951Z" transform="translate(-119.39 -122.601)"/><path class="f" d="M120.337,147.7v-.349h3.348v.349Z" transform="translate(-119.398 -123.052)"/><path class="f" d="M120.329,150.889v-.346h.328a.972.972,0,0,1-.372-.8,1.146,1.146,0,0,1,2.29,0,.977.977,0,0,1-.372.8h.328v.346Zm1.1-1.9a.787.787,0,1,0,.819.789A.784.784,0,0,0,121.431,148.992Z" transform="translate(-119.39 -123.249)"/><path class="f" d="M122.509,153.776l-.342-.084a.843.843,0,0,0,.088-.381.61.61,0,0,0-.686-.591h-1.232v-.347h2.2v.345h-.309a.771.771,0,0,1,.354.653A.949.949,0,0,1,122.509,153.776Z" transform="translate(-119.398 -123.823)"/><path class="f" d="M120.337,156.617v-.349h2.2v.349Zm2.983.072a.242.242,0,0,1-.244-.246.245.245,0,0,1,.491,0A.244.244,0,0,1,123.32,156.689Z" transform="translate(-119.398 -124.41)"/><path class="f" d="M122.1,159.524l-.235-.223a.841.841,0,0,0,.256-.6.821.821,0,0,0-1.64,0,.883.883,0,0,0,.258.609l-.236.216a1.032,1.032,0,0,1-.338-.675l-.715-.223v-.362l.722.239a1.147,1.147,0,0,1,2.274.206A1.064,1.064,0,0,1,122.1,159.524Z" transform="translate(-119.262 -124.62)"/><path class="f" d="M120.337,161.029v-.349h2.2v.349Zm2.983.072a.242.242,0,0,1-.244-.246.245.245,0,0,1,.491,0A.244.244,0,0,1,123.32,161.1Z" transform="translate(-119.398 -125.087)"/><path class="f" d="M121.7,164.181h-1.365v-.346h1.251a.6.6,0,0,0,.665-.635.649.649,0,0,0-.675-.675h-1.242v-.349h2.2v.344h-.313a.872.872,0,0,1,.358.742A.852.852,0,0,1,121.7,164.181Z" transform="translate(-119.398 -125.328)"/><path class="f" d="M120.337,176.544v-.754H122.6l-.276-.727h.742l.574,1.481Z" transform="translate(-119.398 -127.306)"/><path class="f" d="M122.888,180.1v-1.274l-.511-.014v.321c0,.753-.4,1.162-.981,1.162a1.128,1.128,0,0,1-1.13-1.237,1.65,1.65,0,0,1,.453-1.177l.554.375a1.256,1.256,0,0,0-.319.8c0,.3.156.461.391.461.2,0,.367-.141.367-.575v-.8l1.87.042V180.1Z" transform="translate(-119.387 -127.74)"/><path class="f" d="M122.7,183.609a.778.778,0,0,1-.735-.472.779.779,0,0,1-.737.539c-.651,0-.96-.607-.96-1.251a1.462,1.462,0,0,1,.477-1.155l.491.43a.948.948,0,0,0-.294.688c0,.279.112.5.349.5s.346-.256.346-.565v-.368h.663v.372c0,.282.116.5.338.5s.328-.193.328-.458a.84.84,0,0,0-.31-.659l.491-.432a1.4,1.4,0,0,1,.493,1.122C123.64,183.113,123.268,183.609,122.7,183.609Z" transform="translate(-119.388 -128.259)"/></g><path class="e" d="M119.452,171.187a.258.258,0,0,0,.3-.153l.516-1.238a.257.257,0,0,0-.061-.288l-.255-.245c-.09-.086-.05-.224.023-.325a5.164,5.164,0,0,1,1.3-1.3c.1-.074.24-.113.326-.023l.244.255a.257.257,0,0,0,.289.06l1.238-.515a.259.259,0,0,0,.152-.3c-.931-3.773-7.851,3.146-4.078,4.078Zm1.511.673a.166.166,0,0,0,.007.333,3.41,3.41,0,0,0,1.317-.3,3.908,3.908,0,0,0,1.949-1.949,3.391,3.391,0,0,0,.3-1.317.166.166,0,1,0-.332-.006,3.068,3.068,0,0,1-.273,1.187,3.571,3.571,0,0,1-1.781,1.782,3.082,3.082,0,0,1-1.188.272Zm.118-.879a.166.166,0,0,0,.005.332,2.434,2.434,0,0,0,.952-.214,2.8,2.8,0,0,0,1.405-1.405,2.449,2.449,0,0,0,.214-.952.166.166,0,0,0-.333,0,2.1,2.1,0,0,1-.185.822A2.475,2.475,0,0,1,121.9,170.8a2.133,2.133,0,0,1-.823.185Zm.119-.879a.166.166,0,1,0,0,.333,1.5,1.5,0,0,0,.588-.127,1.685,1.685,0,0,0,.511-.351,1.657,1.657,0,0,0,.35-.511,1.47,1.47,0,0,0,.127-.588.166.166,0,0,0-.332,0,1.15,1.15,0,0,1-.1.456,1.334,1.334,0,0,1-.281.409,1.35,1.35,0,0,1-.41.282,1.148,1.148,0,0,1-.455.1Z" transform="translate(-118.336 -125.913)"/></g><line class="k" x2="55.642" transform="translate(7.218 43.38)"/><g transform="translate(7.286 36.957)"><path class="g" d="M11.835,47.3H11.27l-.32-.83H9.475l-.321.83H8.608l1.286-3.256h.656ZM9.669,45.971h1.088l-.544-1.4Z" transform="translate(-8.608 -43.719)"/><path class="g" d="M14.543,44.043a1.629,1.629,0,1,1,0,3.256H13.25V44.043Zm-.767.5V46.8h.767a1.13,1.13,0,1,0,0-2.26Z" transform="translate(-9.321 -43.719)"/><path class="g" d="M19.473,47.7h-.537l1.973-4.044h.538Z" transform="translate(-10.194 -43.66)"/><path class="g" d="M26.451,45.909h-1.69l-.3,1.39h-.538l.693-3.256H26.9l-.107.5H25.051l-.184.87h1.69Z" transform="translate(-10.96 -43.719)"/><path class="g" d="M28.178,47.3H27.64l.693-3.256h.537Z" transform="translate(-11.53 -43.719)"/><path class="g" d="M31.368,44.043c.7,0,1.067.359,1.067.835,0,.437-.289,1.05-1.249,1.05h-.049L32.1,47.3h-.626l-.925-1.37h-.238l-.289,1.37h-.538l.692-3.256Zm-.756.5-.194.912H31.2c.563,0,.679-.284.679-.516s-.19-.4-.565-.4Z" transform="translate(-11.814 -43.719)"/><path class="g" d="M35.987,44.775a1.745,1.745,0,0,0-.989-.3c-.506,0-.7.256-.7.507,0,.234.19.351.51.409l.241.045c.514.09.974.323.974.867,0,.63-.551,1.048-1.35,1.048a2.113,2.113,0,0,1-1.319-.458l.313-.426a1.585,1.585,0,0,0,1.03.387c.431,0,.775-.179.775-.491,0-.225-.2-.349-.607-.423l-.251-.046c-.5-.091-.874-.366-.874-.844,0-.547.413-1.072,1.287-1.072a2.15,2.15,0,0,1,1.249.374Z" transform="translate(-12.408 -43.708)"/><path class="g" d="M40.093,44.541H39.084L38.5,47.3h-.537l.586-2.758H37.507l.107-.5H40.2Z" transform="translate(-13.045 -43.719)"/><path class="g" d="M45.077,47.3h-.491l-1.251-2.432L42.82,47.3h-.535l.692-3.256h.493l1.249,2.431.515-2.431h.535Z" transform="translate(-13.779 -43.719)"/><path class="g" d="M49.6,47.3h-.542l-.141-.83H47.468l-.49.83h-.57l1.954-3.256h.656Zm-1.834-1.327h1.067l-.237-1.4Z" transform="translate(-14.412 -43.719)"/><path class="g" d="M54.445,47.3h-.534l.562-2.632L53.1,46.98h-.553L52.1,44.655l-.56,2.644H51l.693-3.256h.78l.43,2.337,1.4-2.337h.83Z" transform="translate(-15.117 -43.719)"/><path class="g" d="M58.839,45.906H57.121l-.191.9h1.8l-.1.493H56.289l.692-3.256h2.3l-.1.493H57.414l-.188.877h1.717Z" transform="translate(-15.929 -43.719)"/></g><line class="k" x2="55.642" transform="translate(7.218 65.195)"/><g transform="translate(7.482 58.771)"><path class="g" d="M11.147,70.525a1.687,1.687,0,0,0-.913-.278c-.435,0-.732.189-.732.487,0,.269.253.374.676.434l.225.03c.528.072,1.049.291,1.049.9,0,.663-.6,1.025-1.3,1.025a2.115,2.115,0,0,1-1.309-.437l.286-.419a1.64,1.64,0,0,0,1.02.358c.426,0,.761-.181.761-.481,0-.256-.256-.375-.732-.439l-.254-.036c-.484-.067-.965-.295-.965-.9,0-.653.58-1.017,1.284-1.017a2.037,2.037,0,0,1,1.176.352Z" transform="translate(-8.839 -69.48)"/><path class="g" d="M16.076,71.432a1.7,1.7,0,1,1-1.7-1.688A1.637,1.637,0,0,1,16.076,71.432Zm-2.858,0a1.153,1.153,0,1,0,1.153-1.183A1.123,1.123,0,0,0,13.218,71.432Z" transform="translate(-9.427 -69.479)"/><path class="g" d="M18.717,71.749v1.321h-.527V71.74l-1.265-1.925h.628l.9,1.458.9-1.458h.612Z" transform="translate(-10.081 -69.49)"/><path class="g" d="M23.644,73.071h-.565l-.321-.83H21.284l-.321.83h-.546L21.7,69.815h.655Zm-2.167-1.328h1.089l-.544-1.4Z" transform="translate(-10.617 -69.49)"/><path class="g" d="M26.242,69.815a1.629,1.629,0,1,1,0,3.256H24.949V69.815Zm-.767.5v2.26h.767a1.13,1.13,0,1,0,0-2.26Z" transform="translate(-11.312 -69.49)"/><path class="g" d="M30.951,73.475h-.536l1.973-4.044h.537Z" transform="translate(-12.152 -69.431)"/><path class="g" d="M37.777,70.547a1.739,1.739,0,0,0-.989-.3c-.506,0-.7.256-.7.507,0,.234.19.351.51.409l.241.045c.514.091.974.323.974.868,0,.63-.551,1.048-1.351,1.048a2.112,2.112,0,0,1-1.318-.458l.314-.426a1.58,1.58,0,0,0,1.029.386c.431,0,.775-.179.775-.49,0-.226-.2-.349-.607-.423l-.251-.047c-.5-.091-.874-.365-.874-.844,0-.546.413-1.072,1.287-1.072a2.15,2.15,0,0,1,1.249.374Z" transform="translate(-12.878 -69.48)"/><path class="g" d="M41.852,71.81a1.447,1.447,0,0,1-1.535,1.318c-.653,0-1.177-.325-1.177-1.018a1.762,1.762,0,0,1,.04-.348l.416-1.947h.537l-.413,1.932a1.292,1.292,0,0,0-.03.274c0,.43.277.6.69.6a.918.918,0,0,0,.944-.853l.414-1.955h.537Z" transform="translate(-13.491 -69.49)"/><path class="g" d="M44.96,69.815c.7,0,1.067.359,1.067.835,0,.438-.289,1.05-1.249,1.05H44.73l.967,1.37h-.625l-.926-1.37h-.237l-.29,1.37h-.537l.692-3.256Zm-.755.5-.194.912H44.8c.563,0,.679-.284.679-.516s-.19-.4-.565-.4Z" transform="translate(-14.096 -69.49)"/><path class="g" d="M49.671,73.071h-.49L47.93,70.639l-.516,2.432h-.535l.693-3.256h.493l1.248,2.43.516-2.43h.535Z" transform="translate(-14.679 -69.49)"/><path class="g" d="M54.083,73.071h-.543l-.141-.83H51.954l-.491.83h-.57l1.955-3.256H53.5Zm-1.834-1.328h1.067l-.237-1.4Z" transform="translate(-15.296 -69.49)"/><path class="g" d="M58.82,73.071h-.534l.562-2.633-1.376,2.314h-.553l-.447-2.325-.56,2.644h-.535l.693-3.256h.78l.43,2.337,1.4-2.337h.83Z" transform="translate(-15.984 -69.49)"/><path class="g" d="M63.1,71.677H61.386l-.191.9h1.8l-.1.493H60.553l.693-3.256h2.3l-.1.493H61.678l-.187.876h1.717Z" transform="translate(-16.779 -69.49)"/></g><line class="k" x2="55.642" transform="translate(7.218 87.114)"/><g transform="translate(7.305 80.023)"><path class="g" d="M11.263,96.207H10.21v2.758H9.684V96.207H8.63v-.5h2.633Z" transform="translate(-8.63 -94.718)"/><path class="g" d="M15.021,96.319l-.439.294a1.078,1.078,0,0,0-.909-.47,1.184,1.184,0,0,0,0,2.367,1.071,1.071,0,0,0,.907-.467l.428.313a1.583,1.583,0,0,1-1.335.658,1.688,1.688,0,1,1,0-3.376A1.55,1.55,0,0,1,15.021,96.319Z" transform="translate(-9.143 -94.707)"/><path class="g" d="M18.5,97.576h-.314v1.388h-.526V95.709h.526v1.37H18.5l1.223-1.37H20.4L18.939,97.3,20.5,98.965H19.79Z" transform="translate(-10.016 -94.718)"/><path class="g" d="M22.01,94.9a.353.353,0,0,1-.363.356.348.348,0,0,1-.355-.356.352.352,0,0,1,.355-.361A.356.356,0,0,1,22.01,94.9Zm-.048,3.885h-.527V95.529h.527Z" transform="translate(-10.574 -94.538)"/><path class="g" d="M26.525,98.965H26V96.286l-.951,2.36h-.554l-.951-2.335v2.653h-.526V95.709h.807l.946,2.325.947-2.325h.807Z" transform="translate(-10.839 -94.718)"/><path class="g" d="M30.428,98.965H28.1V95.709h.526v2.758h1.8Z" transform="translate(-11.619 -94.718)"/><path class="g" d="M31.919,94.9a.352.352,0,0,1-.362.356A.348.348,0,0,1,31.2,94.9a.352.352,0,0,1,.356-.361A.356.356,0,0,1,31.919,94.9Zm-.048,3.885h-.526V95.529h.526Z" transform="translate(-12.095 -94.538)"/><path class="g" d="M33.766,97.576h-.314v1.388h-.526V95.709h.526v1.37h.321L35,95.709h.679L34.21,97.3l1.565,1.668h-.714Z" transform="translate(-12.36 -94.718)"/><path class="g" d="M40.843,98.965h-.475L38.553,96.61l0,2.355h-.526V95.709H38.5l1.819,2.357V95.709h.525Z" transform="translate(-13.143 -94.718)"/><path class="g" d="M45.493,97.326a1.7,1.7,0,1,1-1.7-1.688A1.637,1.637,0,0,1,45.493,97.326Zm-2.858,0a1.153,1.153,0,1,0,1.153-1.183A1.123,1.123,0,0,0,42.635,97.326Z" transform="translate(-13.766 -94.707)"/><path class="g" d="M48.15,99.37h-.537l1.973-4.044h.537Z" transform="translate(-14.615 -94.659)"/><path class="g" d="M54.823,96.207H53.814l-.586,2.758h-.537l.585-2.758H52.238l.108-.5H54.93Z" transform="translate(-15.325 -94.718)"/><path class="g" d="M56.968,95.709c.7,0,1.067.359,1.067.835,0,.437-.289,1.05-1.249,1.05h-.048l.967,1.37H57.08l-.926-1.37h-.237l-.29,1.37h-.538l.693-3.256Zm-.755.5-.194.912H56.8c.563,0,.679-.283.679-.516s-.19-.4-.565-.4Z" transform="translate(-15.763 -94.718)"/><path class="g" d="M60.58,98.965h-.538l.693-3.256h.537Z" transform="translate(-16.523 -94.718)"/><path class="g" d="M63.348,95.709a1.348,1.348,0,0,1,1.5,1.391,1.848,1.848,0,0,1-1.99,1.865h-1.3l.692-3.256Zm-.664.5-.482,2.26h.714a1.282,1.282,0,0,0,1.374-1.318.883.883,0,0,0-1-.942Z" transform="translate(-16.757 -94.718)"/><path class="g" d="M69.859,98.965h-.49l-1.252-2.432L67.6,98.965h-.535l.692-3.256h.493L69.5,98.14l.515-2.431h.535Z" transform="translate(-17.602 -94.718)"/><path class="g" d="M74.844,97.15a1.823,1.823,0,0,1-1.836,1.864A1.476,1.476,0,0,1,71.445,97.5a1.824,1.824,0,0,1,1.837-1.862A1.476,1.476,0,0,1,74.844,97.15ZM72,97.463a1,1,0,0,0,1.056,1.047,1.273,1.273,0,0,0,1.241-1.321,1,1,0,0,0-1.053-1.044A1.271,1.271,0,0,0,72,97.463Z" transform="translate(-18.274 -94.707)"/></g><line class="k" x2="55.642" transform="translate(7.218 118.639)"/><g transform="translate(7.658 111.548)"><path class="g" d="M9.888,134.82H9.573v1.387H9.047v-3.255h.526v1.37h.321l1.223-1.37H11.8l-1.464,1.588,1.565,1.667h-.714Z" transform="translate(-9.047 -131.961)"/><path class="g" d="M15.833,136.208h-.565l-.32-.83H13.473l-.321.83h-.546l1.286-3.255h.656Zm-2.166-1.327h1.088l-.544-1.4Z" transform="translate(-9.593 -131.961)"/><path class="g" d="M18.257,132.953c.749,0,1.154.335,1.154.942,0,.553-.423.92-1.085.943l1.072,1.37h-.651l-1.037-1.37h-.265v1.37h-.527v-3.255Zm-.813.493v.916h.8c.423,0,.62-.154.62-.467s-.209-.449-.62-.449Z" transform="translate(-10.255 -131.961)"/><path class="g" d="M22.906,133.45H21.853v2.758h-.526V133.45H20.274v-.5h2.632Z" transform="translate(-10.771 -131.961)"/><path class="g" d="M27.549,133.45H26.5v2.758H25.97V133.45H24.917v-.5h2.632Z" transform="translate(-11.484 -131.961)"/><path class="g" d="M29.2,132.142a.352.352,0,0,1-.362.356.348.348,0,0,1-.356-.356.352.352,0,0,1,.356-.361A.356.356,0,0,1,29.2,132.142Zm-.048,3.885H28.63v-3.255h.526Z" transform="translate(-12.032 -131.781)"/><path class="g" d="M30.848,134.93v1.278h-.526v-3.255h1.263c.751,0,1.153.379,1.153.989s-.4.988-1.153.988Zm0-1.48v.985h.723c.425,0,.621-.158.621-.493s-.2-.493-.621-.493Z" transform="translate(-12.313 -131.961)"/><path class="g" d="M34.511,132.142a.353.353,0,0,1-.363.356.349.349,0,0,1-.356-.356.353.353,0,0,1,.356-.361A.356.356,0,0,1,34.511,132.142Zm-.048,3.885h-.527v-3.255h.527Z" transform="translate(-12.846 -131.781)"/><path class="g" d="M37.157,136.613h-.536l1.973-4.044h.537Z" transform="translate(-13.281 -131.902)"/><path class="g" d="M44.018,135.746a1.658,1.658,0,0,1-1.2.512,1.5,1.5,0,0,1-1.558-1.542,1.793,1.793,0,0,1,1.814-1.832,1.51,1.51,0,0,1,1.3.624l-.4.323a1.08,1.08,0,0,0-.924-.442,1.257,1.257,0,0,0-1.232,1.286,1.029,1.029,0,0,0,1.039,1.079,1.188,1.188,0,0,0,.819-.344Z" transform="translate(-13.993 -131.95)"/><path class="g" d="M47.924,136.208h-.542l-.141-.83H45.8l-.491.83h-.57l1.954-3.255h.656ZM46.09,134.88h1.067l-.237-1.4Z" transform="translate(-14.526 -131.961)"/><path class="g" d="M50.989,132.953c.7,0,1.067.358,1.067.835,0,.438-.288,1.05-1.249,1.05h-.049l.968,1.37H51.1l-.925-1.37h-.238l-.289,1.37H49.11l.692-3.255Zm-.756.5-.193.912h.783c.563,0,.679-.284.679-.517s-.19-.4-.565-.4Z" transform="translate(-15.198 -131.961)"/><path class="g" d="M54.586,132.953a1.348,1.348,0,0,1,1.5,1.39,1.848,1.848,0,0,1-1.989,1.865H52.8l.693-3.255Zm-.664.5-.482,2.26h.714a1.282,1.282,0,0,0,1.374-1.318.883.883,0,0,0-1-.942Z" transform="translate(-15.764 -131.961)"/><path class="g" d="M61.321,133.45h-1.01l-.586,2.758h-.537l.585-2.758H58.735l.107-.5h2.586Z" transform="translate(-16.676 -131.961)"/><path class="g" d="M63.734,134.89l-.279,1.318h-.537l.288-1.359-.828-1.9h.567l.605,1.437,1.172-1.437h.663Z" transform="translate(-17.235 -131.961)"/><path class="g" d="M66.345,134.93l-.273,1.278h-.537l.692-3.255h1.086c.7,0,1.062.356,1.062.868,0,.674-.481,1.109-1.327,1.109Zm.314-1.48-.21.985h.623c.507,0,.756-.2.756-.565,0-.275-.181-.421-.565-.421Z" transform="translate(-17.72 -131.961)"/><path class="g" d="M71.392,134.815H69.674l-.191.9h1.8l-.1.493H68.841l.693-3.255h2.3l-.1.493H69.966l-.187.876H71.5Z" transform="translate(-18.227 -131.961)"/></g><text class="l" transform="translate(7.217 136.865)"><tspan x="0" y="0">04123K456NNA78</tspan><tspan x="0" y="3">P194310197</tspan></text></g></svg>