<svg xmlns="http://www.w3.org/2000/svg" xmlns:xlink="http://www.w3.org/1999/xlink" width="129.569" height="206.351" viewBox="0 0 129.569 206.351"><defs><style>.a{fill:none;}.b{clip-path:url(#a);}.c{fill:#1ca7e3;}.d{fill:#0060af;}.e{fill:#fff;}.f{fill:#77d0f7;}</style><clipPath id="a"><rect class="a" width="206.351" height="129.569" rx="4.148" transform="translate(129.569) rotate(90)"/></clipPath></defs><g class="b" transform="translate(0 0)"><rect class="c" width="153.846" height="230.628" transform="translate(-12.138 -12.138)"/><path class="d" d="M-25.837,201.537l-12.138-8.3V40.047l12.138,12.931Z" transform="translate(167.545 -6.149)"/><g transform="translate(33.268 13.348)"><path class="d" d="M-151.744,72.326c0,9.574,2.814,19.3,7.478,28.841a3.816,3.816,0,0,1,1.08-.169c2.264,0,3.786,1.689,3.786,4.2a4.457,4.457,0,0,1-1.052,3.05c25.429,43.421,85.009,81.26,85.009,81.26V36.319C-93.793-2.67-151.744,16.293-151.744,72.326Z" transform="translate(151.744 -15.769)"/></g><g transform="translate(65.481 32.862)"><path class="e" d="M-111.288,47.33a2.281,2.281,0,0,1,.2-.48,5.249,5.249,0,0,0,.58-2.318,5.242,5.242,0,0,0-.58-2.316,2.285,2.285,0,0,1-.2-.481.435.435,0,0,1,.229-.288.405.405,0,0,1,.161-.025c.136.019.22.053.482.582a5.1,5.1,0,0,1,.6,2.512,5.131,5.131,0,0,1-.6,2.542c-.262.53-.345.564-.482.582a.411.411,0,0,1-.162-.025.442.442,0,0,1-.227-.278Z" transform="translate(113.32 -39.222)"/><path class="e" d="M-106.269,39.119a.554.554,0,0,1,.175-.251.409.409,0,0,1,.412.021,3.558,3.558,0,0,1,.3.512,10.637,10.637,0,0,1,1.034,3.246,11.778,11.778,0,0,1,.094,1.474,11.808,11.808,0,0,1-.094,1.483,10.627,10.627,0,0,1-1.034,3.247,3.466,3.466,0,0,1-.3.514.414.414,0,0,1-.411.019.475.475,0,0,1-.169-.269c.026-.075.123-.3.26-.578a9.3,9.3,0,0,0,1.044-4.4A9.315,9.315,0,0,0-106,39.716,5.921,5.921,0,0,1-106.269,39.119Z" transform="translate(112.55 -38.823)"/><path class="e" d="M-108.762,48.2a.167.167,0,0,1,.008-.052c.02-.062.143-.325.273-.59a7.212,7.212,0,0,0,.759-3.195c0-.234-.011-.438-.03-.642a6.967,6.967,0,0,0-.769-2.7,2.048,2.048,0,0,1-.24-.606c0-.036.012-.069.077-.161a.32.32,0,0,1,.227-.114.352.352,0,0,1,.27.073,8.225,8.225,0,0,1,.771,1.643,7.971,7.971,0,0,1,.4,2.478,8.122,8.122,0,0,1-.659,3.193c-.439,1.03-.653,1.065-.835,1.012a.384.384,0,0,1-.248-.334Z" transform="translate(112.933 -39.024)"/><path class="e" d="M-113.689,46.44a.958.958,0,0,1,.179-.4,2.558,2.558,0,0,0,.407-1.308,2.557,2.557,0,0,0-.407-1.306.961.961,0,0,1-.179-.4.5.5,0,0,1,.214-.32c.074-.03.269-.111.546.317a3.137,3.137,0,0,1,.494,1.709,3.134,3.134,0,0,1-.494,1.712c-.276.428-.472.347-.547.317a.484.484,0,0,1-.2-.251Z" transform="translate(113.689 -39.415)"/></g><g transform="translate(65.739 47.356)"><path class="f" d="M-112.5,56.4a.437.437,0,0,1-.445.443.435.435,0,0,1-.443-.443.439.439,0,0,1,.443-.449A.441.441,0,0,1-112.5,56.4Zm-.033,4.254h-.71V57.088h.71Z" transform="translate(113.384 -55.946)"/><path class="f" d="M-108.674,58.182a1.92,1.92,0,0,0-1.011-.3c-.4,0-.681.158-.681.427s.307.341.736.413l.2.033c.636.1,1.135.376,1.135,1,0,.786-.692,1.161-1.458,1.161a2.48,2.48,0,0,1-1.5-.466l.369-.573a1.881,1.881,0,0,0,1.134.384c.394,0,.7-.155.7-.43,0-.247-.26-.339-.756-.417l-.226-.036c-.629-.1-1.087-.377-1.087-1.021,0-.742.662-1.129,1.42-1.129a2.515,2.515,0,0,1,1.362.378Z" transform="translate(113.057 -56.142)"/><path class="f" d="M-104.127,57.959h-1.1v2.9h-.71v-2.9h-1.1V57.3h2.918Z" transform="translate(112.411 -56.153)"/><path class="f" d="M-99.819,60.857h-.758l-.311-.829h-1.519l-.311.829h-.741l1.387-3.562h.866Zm-2.344-1.484h1.031L-101.646,58Z" transform="translate(111.86 -56.153)"/><path class="f" d="M-95.082,60.857h-.666l-1.806-2.379,0,2.379h-.709V57.3h.664l1.809,2.379V57.3h.712Z" transform="translate(111.063 -56.153)"/><path class="f" d="M-91.742,57.3c.83,0,1.351.308,1.351.987a.794.794,0,0,1-.516.756.856.856,0,0,1,.593.8c0,.685-.487,1.02-1.341,1.02H-93.2V57.3Zm-.746.626v.831h.728c.354,0,.629-.074.629-.42s-.28-.411-.631-.411Zm0,1.455v.855l.8,0c.392,0,.639-.091.639-.433s-.247-.425-.639-.425Z" transform="translate(110.285 -56.153)"/><path class="f" d="M-85.665,59.435A1.387,1.387,0,0,1-87.2,60.921a1.388,1.388,0,0,1-1.535-1.486V57.3h.712v2.1a.749.749,0,0,0,.823.842.749.749,0,0,0,.821-.842V57.3h.713Z" transform="translate(109.599 -56.153)"/><path class="f" d="M-81.256,60.857h-2.593V57.3h.709v2.9h1.883Z" transform="translate(108.849 -56.153)"/><path class="f" d="M-79.724,57.175l-.356,1.516h-.56l.171-1.516Z" transform="translate(108.357 -56.135)"/><path class="f" d="M-75.431,59.435a1.388,1.388,0,0,1-1.535,1.486A1.388,1.388,0,0,1-78.5,59.435V57.3h.713v2.1a.749.749,0,0,0,.822.842.749.749,0,0,0,.822-.842V57.3h.713Z" transform="translate(108.028 -56.153)"/><path class="f" d="M-70.43,60.857H-71.1L-72.9,58.478l0,2.379h-.71V57.3h.664l1.809,2.379V57.3h.713Z" transform="translate(107.278 -56.153)"/><path class="f" d="M-112.174,66.474h-.328v1.465h-.71V64.377h.71v1.442h.336l1.177-1.442h.891l-1.493,1.738,1.606,1.824h-.922Z" transform="translate(113.358 -57.24)"/><path class="f" d="M-105.3,67.939h-.758l-.311-.829h-1.519l-.311.829h-.741l1.387-3.562h.866Zm-2.344-1.484h1.031l-.514-1.376Z" transform="translate(112.701 -57.24)"/><path class="f" d="M-102.238,64.377c.85,0,1.305.4,1.305,1.084a1.058,1.058,0,0,1-1.092,1.05l1.1,1.427h-.86l-1.039-1.417h-.208v1.417h-.71V64.377Zm-.8.654V65.9h.784c.387,0,.587-.143.587-.443s-.211-.43-.587-.43Z" transform="translate(111.904 -57.24)"/><path class="f" d="M-96.777,65.041h-1.1v2.9h-.709v-2.9h-1.1v-.664h2.919Z" transform="translate(111.282 -57.24)"/><path class="f" d="M-94.612,67.939h-.709V64.377h.709Z" transform="translate(110.611 -57.24)"/></g><g transform="translate(10.797 91.999)"><circle class="c" cx="5.163" cy="5.163" r="5.163" transform="translate(26.859 5.469)"/><path class="e" d="M-134.885,114.115V126.1h-2.875l-.434-1.836v-.025h-.073a3.572,3.572,0,0,1-3.576,2.151c-3.286,0-5.461-2.513-5.461-6.282s2.175-6.282,5.461-6.282a3.588,3.588,0,0,1,3.576,2.126h.073l.434-1.837Zm-3.31,5.993c0-1.958-1.136-3.262-2.875-3.262-1.716,0-2.852,1.3-2.852,3.262s1.136,3.261,2.852,3.261C-139.33,123.369-138.194,122.064-138.194,120.107Z" transform="translate(173.533 -109.475)"/><path class="e" d="M-167.517,123.8c1.111,0,1.837-.483,1.837-1.208,0-.483-.242-.774-.918-.918l-2.126-.411c-2.441-.508-3.746-1.716-3.746-3.576,0-2.3,2.03-3.842,5.026-3.866a4.734,4.734,0,0,1,4.736,3.165l-2.779.846a1.92,1.92,0,0,0-2.03-1.425c-.99,0-1.619.459-1.619,1.16,0,.532.363.894,1.184,1.039l2.126.434c2.272.435,3.48,1.619,3.48,3.383,0,2.368-2.054,3.963-5.1,3.963-2.852,0-5-1.523-5.34-3.794l2.827-.435C-169.885,123.151-168.895,123.8-167.517,123.8Z" transform="translate(177.445 -109.475)"/><path class="e" d="M-153.6,116.225v4.856c0,.822.58,1.305,1.546,1.305h1.462v2.924H-152.8c-2.61,0-4.108-1.45-4.108-4.035v-5.05h-2.658v-2.9h2.658v-4.639h3.311v4.639h3.008v2.9Z" transform="translate(175.416 -108.686)"/><path class="e" d="M-118.485,118.367V126.1H-121.8v-6.6a2.332,2.332,0,0,0-2.3-2.585,2.458,2.458,0,0,0-2.44,2.73V126.1h-3.311V114.115h2.875l.435,1.885h.073a3.613,3.613,0,0,1,3.648-2.175A4.182,4.182,0,0,1-118.485,118.367Z" transform="translate(170.852 -109.475)"/><path class="e" d="M-101.617,119.318c0,3.77-2.175,6.283-5.461,6.283a3.516,3.516,0,0,1-3.553-2.151h-.073l-.434,1.861h-2.875V108.686h3.31v6.475h.073a3.532,3.532,0,0,1,3.553-2.125C-103.792,113.036-101.617,115.548-101.617,119.318Zm-3.383,0c0-1.957-1.135-3.261-2.851-3.261s-2.852,1.3-2.852,3.261,1.136,3.262,2.852,3.262S-105,121.275-105,119.318Z" transform="translate(168.422 -108.686)"/><path class="e" d="M-86.062,114.167v11.985h-2.875l-.435-1.861h-.1a3.617,3.617,0,0,1-3.624,2.151,4.2,4.2,0,0,1-4.35-4.543v-7.732h3.311v6.6a2.32,2.32,0,0,0,2.3,2.586,2.451,2.451,0,0,0,2.465-2.731v-6.452Z" transform="translate(165.878 -109.528)"/><path class="e" d="M-77.563,125.311c-2.61,0-4.108-1.45-4.108-4.035V108.686h3.311v12.4a1.043,1.043,0,0,0,1.16,1.112h1.764v3.117Z" transform="translate(163.456 -108.686)"/><path class="e" d="M-61.839,113.576C-65.086,110.725-69,112.1-69,116.252s7.159,8.712,7.159,8.712,7.159-4.546,7.159-8.712S-58.988,110.678-61.839,113.576Z" transform="translate(161.511 -109.202)"/><path class="e" d="M-65.709,108.686h-4.639v4.639A9.74,9.74,0,0,1-65.709,108.686Z" transform="translate(161.718 -108.686)"/><path class="e" d="M-51.574,113.326v-4.639h-4.639A9.738,9.738,0,0,1-51.574,113.326Z" transform="translate(159.548 -108.686)"/><rect class="e" width="3.31" height="11.985" transform="translate(0.018 4.639)"/><rect class="e" width="3.347" height="3.087" transform="translate(0 0)"/><path class="e" d="M-56.213,127.461h4.639v-4.639A9.738,9.738,0,0,1-56.213,127.461Z" transform="translate(159.548 -110.856)"/><path class="e" d="M-70.348,122.822v4.639h4.639A9.74,9.74,0,0,1-70.348,122.822Z" transform="translate(161.718 -110.856)"/></g><g transform="translate(8.165 167.085)"><path class="e" d="M-177.144,201.843a2.014,2.014,0,0,1-.138.738,1.879,1.879,0,0,1-.405.631,2,2,0,0,1-.659.444,2.276,2.276,0,0,1-.908.169,2.409,2.409,0,0,1-.873-.152,1.943,1.943,0,0,1-.676-.431,1.887,1.887,0,0,1-.441-.689,2.546,2.546,0,0,1-.156-.915,5.043,5.043,0,0,1,.245-1.583,4.323,4.323,0,0,1,.686-1.315,3.612,3.612,0,0,1,1.05-.924,3.263,3.263,0,0,1,1.342-.427l.124.569a2.821,2.821,0,0,0-1.026.329,3.144,3.144,0,0,0-.813.639,3.42,3.42,0,0,0-.565.845,3.164,3.164,0,0,0-.28.942,1.128,1.128,0,0,1,.209-.24,1.374,1.374,0,0,1,.329-.218,2.329,2.329,0,0,1,.427-.156,1.991,1.991,0,0,1,.511-.062,2.59,2.59,0,0,1,.844.129,1.85,1.85,0,0,1,.636.364,1.561,1.561,0,0,1,.4.57A1.916,1.916,0,0,1-177.144,201.843Zm-.738.071a1.252,1.252,0,0,0-.345-.951,1.5,1.5,0,0,0-1.063-.329,1.766,1.766,0,0,0-.478.062,1.773,1.773,0,0,0-.4.165,1.493,1.493,0,0,0-.311.235,1.161,1.161,0,0,0-.2.267,1.47,1.47,0,0,0-.018.2v.169a1.719,1.719,0,0,0,.089.538,1.4,1.4,0,0,0,.27.484,1.373,1.373,0,0,0,.456.346,1.453,1.453,0,0,0,.647.134,1.379,1.379,0,0,0,.549-.107,1.394,1.394,0,0,0,.429-.284,1.23,1.23,0,0,0,.279-.419A1.324,1.324,0,0,0-177.882,201.915Z" transform="translate(181.401 -197.391)"/><path class="e" d="M-172.588,203.222a2.194,2.194,0,0,0,.653-.092,1.681,1.681,0,0,0,.521-.262,1.218,1.218,0,0,0,.346-.407,1.136,1.136,0,0,0,.124-.532.938.938,0,0,0-.432-.872,2.222,2.222,0,0,0-1.16-.262h-.569v-.427l1.761-2.213h-2.667v-.64h3.52v.64l-1.76,2.053h.143a2.339,2.339,0,0,1,.75.115,1.785,1.785,0,0,1,.589.329,1.478,1.478,0,0,1,.389.516,1.625,1.625,0,0,1,.138.685,1.872,1.872,0,0,1-.187.853,1.832,1.832,0,0,1-.508.626,2.222,2.222,0,0,1-.753.382,3.2,3.2,0,0,1-.922.13,4.039,4.039,0,0,1-.789-.068,4.377,4.377,0,0,1-.61-.168l.178-.627a2.623,2.623,0,0,0,.543.174A3.336,3.336,0,0,0-172.588,203.222Z" transform="translate(180.266 -197.41)"/><path class="e" d="M-166.613,203.739l2.721-5.582H-167.1v-.64h3.928v.577l-2.71,5.644Z" transform="translate(179.206 -197.41)"/><path class="e" d="M-160.139,200.608a6.283,6.283,0,0,1,.133-1.356,3.1,3.1,0,0,1,.4-1.013,1.818,1.818,0,0,1,.676-.631,2.037,2.037,0,0,1,.971-.218,2.19,2.19,0,0,1,1.012.213,1.715,1.715,0,0,1,.672.621,2.92,2.92,0,0,1,.374,1.01,7.29,7.29,0,0,1,.116,1.373,6.253,6.253,0,0,1-.134,1.354,3.082,3.082,0,0,1-.4,1.014,1.813,1.813,0,0,1-.676.631,2.047,2.047,0,0,1-.971.218,1.993,1.993,0,0,1-1-.236,1.868,1.868,0,0,1-.676-.662,3.03,3.03,0,0,1-.379-1.017A6.812,6.812,0,0,1-160.139,200.608Zm.737,0c0,.148,0,.29.014.427s.019.269.031.4l2.648-2.4a1.766,1.766,0,0,0-.449-.764,1.115,1.115,0,0,0-.8-.284,1.144,1.144,0,0,0-1.116.653A4.611,4.611,0,0,0-159.4,200.608Zm2.88,0a7.25,7.25,0,0,0-.053-.9l-2.639,2.409a1.881,1.881,0,0,0,.453.808,1.069,1.069,0,0,0,.791.3,1.156,1.156,0,0,0,1.115-.648A4.484,4.484,0,0,0-156.522,200.608Z" transform="translate(178.137 -197.391)"/><g transform="translate(60.117)"><path class="e" d="M-110.38,200.608a6.282,6.282,0,0,1,.133-1.356,3.086,3.086,0,0,1,.4-1.013,1.812,1.812,0,0,1,.676-.631,2.037,2.037,0,0,1,.971-.218,2.186,2.186,0,0,1,1.011.213,1.717,1.717,0,0,1,.673.621,2.9,2.9,0,0,1,.373,1.01,7.217,7.217,0,0,1,.117,1.373,6.2,6.2,0,0,1-.135,1.354,3.082,3.082,0,0,1-.4,1.014,1.809,1.809,0,0,1-.677.631,2.045,2.045,0,0,1-.971.218,1.992,1.992,0,0,1-1-.236,1.877,1.877,0,0,1-.677-.662,3.03,3.03,0,0,1-.378-1.017A6.808,6.808,0,0,1-110.38,200.608Zm.737,0c0,.148,0,.29.014.427s.019.269.03.4l2.649-2.4a1.774,1.774,0,0,0-.449-.764,1.115,1.115,0,0,0-.8-.284,1.144,1.144,0,0,0-1.116.653A4.611,4.611,0,0,0-109.643,200.608Zm2.88,0a7.25,7.25,0,0,0-.053-.9l-2.64,2.409a1.882,1.882,0,0,0,.454.808,1.069,1.069,0,0,0,.791.3,1.156,1.156,0,0,0,1.115-.648A4.484,4.484,0,0,0-106.763,200.608Z" transform="translate(110.38 -197.391)"/><path class="e" d="M-103.272,200.608a6.228,6.228,0,0,1,.134-1.356,3.1,3.1,0,0,1,.4-1.013,1.814,1.814,0,0,1,.677-.631,2.034,2.034,0,0,1,.971-.218,2.189,2.189,0,0,1,1.011.213,1.715,1.715,0,0,1,.672.621,2.921,2.921,0,0,1,.374,1.01,7.292,7.292,0,0,1,.116,1.373,6.252,6.252,0,0,1-.134,1.354,3.1,3.1,0,0,1-.4,1.014,1.816,1.816,0,0,1-.677.631,2.047,2.047,0,0,1-.971.218,1.993,1.993,0,0,1-1-.236,1.869,1.869,0,0,1-.676-.662,3.012,3.012,0,0,1-.378-1.017A6.739,6.739,0,0,1-103.272,200.608Zm.737,0c0,.148,0,.29.014.427s.019.269.031.4l2.649-2.4a1.767,1.767,0,0,0-.449-.764,1.115,1.115,0,0,0-.8-.284,1.144,1.144,0,0,0-1.116.653A4.611,4.611,0,0,0-102.535,200.608Zm2.88,0a7.25,7.25,0,0,0-.053-.9l-2.639,2.409a1.881,1.881,0,0,0,.453.808,1.071,1.071,0,0,0,.791.3,1.155,1.155,0,0,0,1.115-.648A4.484,4.484,0,0,0-99.655,200.608Z" transform="translate(109.289 -197.391)"/><path class="e" d="M-95.814,200.608a6.227,6.227,0,0,1,.134-1.356,3.1,3.1,0,0,1,.4-1.013,1.814,1.814,0,0,1,.677-.631,2.034,2.034,0,0,1,.971-.218,2.189,2.189,0,0,1,1.011.213,1.715,1.715,0,0,1,.672.621,2.921,2.921,0,0,1,.374,1.01,7.292,7.292,0,0,1,.116,1.373,6.252,6.252,0,0,1-.134,1.354,3.1,3.1,0,0,1-.4,1.014,1.816,1.816,0,0,1-.677.631,2.047,2.047,0,0,1-.971.218,1.993,1.993,0,0,1-1-.236,1.868,1.868,0,0,1-.676-.662,3.012,3.012,0,0,1-.378-1.017A6.74,6.74,0,0,1-95.814,200.608Zm.737,0c0,.148,0,.29.014.427s.019.269.031.4l2.649-2.4a1.768,1.768,0,0,0-.449-.764,1.115,1.115,0,0,0-.8-.284,1.144,1.144,0,0,0-1.116.653A4.611,4.611,0,0,0-95.077,200.608Zm2.88,0a7.247,7.247,0,0,0-.053-.9l-2.639,2.409a1.881,1.881,0,0,0,.453.808,1.071,1.071,0,0,0,.791.3,1.155,1.155,0,0,0,1.115-.648A4.484,4.484,0,0,0-92.2,200.608Z" transform="translate(108.144 -197.391)"/><path class="e" d="M-88.706,200.608a6.279,6.279,0,0,1,.134-1.356,3.085,3.085,0,0,1,.4-1.013,1.812,1.812,0,0,1,.676-.631,2.037,2.037,0,0,1,.971-.218,2.187,2.187,0,0,1,1.011.213,1.723,1.723,0,0,1,.673.621,2.921,2.921,0,0,1,.373,1.01,7.292,7.292,0,0,1,.116,1.373,6.2,6.2,0,0,1-.134,1.354,3.1,3.1,0,0,1-.4,1.014,1.809,1.809,0,0,1-.677.631,2.047,2.047,0,0,1-.971.218,1.99,1.99,0,0,1-1-.236,1.871,1.871,0,0,1-.677-.662,3.03,3.03,0,0,1-.378-1.017A6.807,6.807,0,0,1-88.706,200.608Zm.738,0c0,.148,0,.29.014.427s.019.269.03.4l2.649-2.4a1.775,1.775,0,0,0-.449-.764,1.116,1.116,0,0,0-.8-.284,1.144,1.144,0,0,0-1.116.653A4.6,4.6,0,0,0-87.968,200.608Zm2.88,0a7.245,7.245,0,0,0-.053-.9l-2.64,2.409a1.873,1.873,0,0,0,.454.808,1.069,1.069,0,0,0,.791.3,1.156,1.156,0,0,0,1.116-.648A4.5,4.5,0,0,0-85.088,200.608Z" transform="translate(107.052 -197.391)"/></g><g transform="translate(30.085)"><path class="e" d="M-141.6,201.843a2.015,2.015,0,0,1-.138.738,1.879,1.879,0,0,1-.405.631,2,2,0,0,1-.659.444,2.276,2.276,0,0,1-.908.169,2.406,2.406,0,0,1-.873-.152,1.943,1.943,0,0,1-.676-.431,1.888,1.888,0,0,1-.441-.689,2.546,2.546,0,0,1-.156-.915,5.043,5.043,0,0,1,.245-1.583,4.325,4.325,0,0,1,.686-1.315,3.613,3.613,0,0,1,1.05-.924,3.264,3.264,0,0,1,1.342-.427l.124.569a2.821,2.821,0,0,0-1.026.329,3.144,3.144,0,0,0-.813.639,3.421,3.421,0,0,0-.565.845,3.165,3.165,0,0,0-.28.942,1.129,1.129,0,0,1,.209-.24,1.375,1.375,0,0,1,.329-.218,2.343,2.343,0,0,1,.426-.156,2,2,0,0,1,.512-.062,2.59,2.59,0,0,1,.844.129,1.849,1.849,0,0,1,.636.364,1.562,1.562,0,0,1,.4.57A1.917,1.917,0,0,1-141.6,201.843Zm-.738.071a1.252,1.252,0,0,0-.345-.951,1.5,1.5,0,0,0-1.063-.329,1.766,1.766,0,0,0-.478.062,1.772,1.772,0,0,0-.4.165,1.491,1.491,0,0,0-.311.235,1.162,1.162,0,0,0-.2.267,1.472,1.472,0,0,0-.018.2v.169a1.72,1.72,0,0,0,.089.538,1.4,1.4,0,0,0,.27.484,1.373,1.373,0,0,0,.456.346,1.454,1.454,0,0,0,.647.134,1.379,1.379,0,0,0,.549-.107,1.394,1.394,0,0,0,.429-.284,1.23,1.23,0,0,0,.279-.419A1.324,1.324,0,0,0-142.34,201.915Z" transform="translate(145.859 -197.391)"/><path class="e" d="M-138.814,200.608a6.227,6.227,0,0,1,.134-1.356,3.1,3.1,0,0,1,.4-1.013,1.814,1.814,0,0,1,.677-.631,2.034,2.034,0,0,1,.971-.218,2.189,2.189,0,0,1,1.011.213,1.715,1.715,0,0,1,.672.621,2.92,2.92,0,0,1,.374,1.01,7.293,7.293,0,0,1,.116,1.373,6.253,6.253,0,0,1-.134,1.354,3.1,3.1,0,0,1-.4,1.014,1.815,1.815,0,0,1-.677.631,2.047,2.047,0,0,1-.971.218,1.993,1.993,0,0,1-1-.236,1.868,1.868,0,0,1-.676-.662,3.012,3.012,0,0,1-.378-1.017A6.739,6.739,0,0,1-138.814,200.608Zm.737,0c0,.148,0,.29.014.427s.019.269.031.4l2.649-2.4a1.768,1.768,0,0,0-.449-.764,1.115,1.115,0,0,0-.8-.284,1.144,1.144,0,0,0-1.116.653A4.61,4.61,0,0,0-138.077,200.608Zm2.88,0a7.247,7.247,0,0,0-.053-.9l-2.639,2.409a1.881,1.881,0,0,0,.453.808,1.071,1.071,0,0,0,.791.3,1.155,1.155,0,0,0,1.115-.648A4.484,4.484,0,0,0-135.2,200.608Z" transform="translate(144.777 -197.391)"/><path class="e" d="M-131.706,200.608a6.281,6.281,0,0,1,.134-1.356,3.086,3.086,0,0,1,.4-1.013,1.812,1.812,0,0,1,.676-.631,2.037,2.037,0,0,1,.971-.218,2.187,2.187,0,0,1,1.011.213,1.723,1.723,0,0,1,.673.621,2.921,2.921,0,0,1,.373,1.01,7.294,7.294,0,0,1,.116,1.373,6.2,6.2,0,0,1-.134,1.354,3.1,3.1,0,0,1-.4,1.014,1.809,1.809,0,0,1-.677.631,2.047,2.047,0,0,1-.971.218,1.99,1.99,0,0,1-1-.236,1.871,1.871,0,0,1-.677-.662,3.03,3.03,0,0,1-.378-1.017A6.806,6.806,0,0,1-131.706,200.608Zm.738,0c0,.148,0,.29.014.427s.019.269.03.4l2.649-2.4a1.774,1.774,0,0,0-.449-.764,1.116,1.116,0,0,0-.8-.284,1.144,1.144,0,0,0-1.116.653A4.6,4.6,0,0,0-130.968,200.608Zm2.88,0a7.25,7.25,0,0,0-.053-.9l-2.64,2.409a1.873,1.873,0,0,0,.454.808,1.069,1.069,0,0,0,.791.3,1.156,1.156,0,0,0,1.116-.648A4.5,4.5,0,0,0-128.088,200.608Z" transform="translate(143.686 -197.391)"/><path class="e" d="M-124.706,200.608a6.28,6.28,0,0,1,.134-1.356,3.085,3.085,0,0,1,.4-1.013,1.812,1.812,0,0,1,.676-.631,2.037,2.037,0,0,1,.971-.218,2.187,2.187,0,0,1,1.011.213,1.723,1.723,0,0,1,.673.621,2.92,2.92,0,0,1,.373,1.01,7.293,7.293,0,0,1,.116,1.373,6.2,6.2,0,0,1-.134,1.354,3.1,3.1,0,0,1-.4,1.014,1.809,1.809,0,0,1-.677.631,2.047,2.047,0,0,1-.971.218,1.99,1.99,0,0,1-1-.236,1.87,1.87,0,0,1-.677-.662,3.029,3.029,0,0,1-.378-1.017A6.807,6.807,0,0,1-124.706,200.608Zm.738,0c0,.148,0,.29.014.427s.019.269.03.4l2.649-2.4a1.775,1.775,0,0,0-.449-.764,1.116,1.116,0,0,0-.8-.284,1.144,1.144,0,0,0-1.116.653A4.6,4.6,0,0,0-123.968,200.608Zm2.88,0a7.249,7.249,0,0,0-.053-.9l-2.64,2.409a1.873,1.873,0,0,0,.454.808,1.069,1.069,0,0,0,.791.3,1.156,1.156,0,0,0,1.116-.648A4.5,4.5,0,0,0-121.088,200.608Z" transform="translate(142.611 -197.391)"/></g><g transform="translate(89.743)"><path class="e" d="M-75.38,200.608a6.283,6.283,0,0,1,.133-1.356,3.086,3.086,0,0,1,.4-1.013,1.812,1.812,0,0,1,.676-.631,2.037,2.037,0,0,1,.971-.218,2.186,2.186,0,0,1,1.011.213,1.717,1.717,0,0,1,.673.621,2.9,2.9,0,0,1,.373,1.01,7.217,7.217,0,0,1,.117,1.373,6.2,6.2,0,0,1-.135,1.354,3.082,3.082,0,0,1-.4,1.014,1.81,1.81,0,0,1-.677.631,2.045,2.045,0,0,1-.971.218,1.992,1.992,0,0,1-1-.236,1.877,1.877,0,0,1-.677-.662,3.03,3.03,0,0,1-.378-1.017A6.809,6.809,0,0,1-75.38,200.608Zm.737,0c0,.148,0,.29.014.427s.019.269.03.4l2.649-2.4a1.774,1.774,0,0,0-.449-.764,1.115,1.115,0,0,0-.8-.284,1.144,1.144,0,0,0-1.116.653A4.611,4.611,0,0,0-74.643,200.608Zm2.88,0a7.25,7.25,0,0,0-.053-.9l-2.64,2.409a1.882,1.882,0,0,0,.454.808,1.069,1.069,0,0,0,.791.3,1.156,1.156,0,0,0,1.115-.648A4.484,4.484,0,0,0-71.763,200.608Z" transform="translate(75.38 -197.391)"/><path class="e" d="M-68.272,200.608a6.227,6.227,0,0,1,.134-1.356,3.1,3.1,0,0,1,.4-1.013,1.814,1.814,0,0,1,.677-.631,2.034,2.034,0,0,1,.971-.218,2.189,2.189,0,0,1,1.011.213,1.715,1.715,0,0,1,.672.621,2.921,2.921,0,0,1,.374,1.01,7.292,7.292,0,0,1,.116,1.373,6.252,6.252,0,0,1-.134,1.354,3.1,3.1,0,0,1-.4,1.014,1.816,1.816,0,0,1-.677.631,2.047,2.047,0,0,1-.971.218,1.993,1.993,0,0,1-1-.236,1.869,1.869,0,0,1-.676-.662,3.012,3.012,0,0,1-.378-1.017A6.74,6.74,0,0,1-68.272,200.608Zm.737,0c0,.148,0,.29.014.427s.019.269.031.4l2.649-2.4a1.767,1.767,0,0,0-.449-.764,1.115,1.115,0,0,0-.8-.284,1.144,1.144,0,0,0-1.116.653A4.611,4.611,0,0,0-67.535,200.608Zm2.88,0a7.248,7.248,0,0,0-.053-.9l-2.639,2.409a1.881,1.881,0,0,0,.453.808,1.071,1.071,0,0,0,.791.3,1.155,1.155,0,0,0,1.115-.648A4.484,4.484,0,0,0-64.655,200.608Z" transform="translate(74.289 -197.391)"/><path class="e" d="M-60.814,200.608a6.227,6.227,0,0,1,.134-1.356,3.1,3.1,0,0,1,.4-1.013,1.814,1.814,0,0,1,.677-.631,2.034,2.034,0,0,1,.971-.218,2.189,2.189,0,0,1,1.011.213,1.715,1.715,0,0,1,.672.621,2.921,2.921,0,0,1,.374,1.01,7.292,7.292,0,0,1,.116,1.373,6.252,6.252,0,0,1-.134,1.354,3.1,3.1,0,0,1-.4,1.014,1.816,1.816,0,0,1-.677.631,2.047,2.047,0,0,1-.971.218,1.993,1.993,0,0,1-1-.236,1.868,1.868,0,0,1-.676-.662,3.011,3.011,0,0,1-.378-1.017A6.739,6.739,0,0,1-60.814,200.608Zm.737,0c0,.148,0,.29.014.427s.019.269.031.4l2.649-2.4a1.767,1.767,0,0,0-.449-.764,1.115,1.115,0,0,0-.8-.284,1.144,1.144,0,0,0-1.116.653A4.611,4.611,0,0,0-60.077,200.608Zm2.88,0a7.247,7.247,0,0,0-.053-.9l-2.639,2.409a1.881,1.881,0,0,0,.453.808,1.071,1.071,0,0,0,.791.3,1.155,1.155,0,0,0,1.115-.648A4.484,4.484,0,0,0-57.2,200.608Z" transform="translate(73.144 -197.391)"/><path class="e" d="M-53.706,200.608a6.28,6.28,0,0,1,.134-1.356,3.085,3.085,0,0,1,.4-1.013,1.812,1.812,0,0,1,.676-.631,2.037,2.037,0,0,1,.971-.218,2.187,2.187,0,0,1,1.011.213,1.723,1.723,0,0,1,.673.621,2.92,2.92,0,0,1,.373,1.01,7.292,7.292,0,0,1,.116,1.373,6.2,6.2,0,0,1-.134,1.354,3.1,3.1,0,0,1-.4,1.014,1.809,1.809,0,0,1-.677.631,2.047,2.047,0,0,1-.971.218,1.99,1.99,0,0,1-1-.236,1.871,1.871,0,0,1-.677-.662,3.03,3.03,0,0,1-.378-1.017A6.806,6.806,0,0,1-53.706,200.608Zm.738,0c0,.148,0,.29.014.427s.019.269.03.4l2.649-2.4a1.775,1.775,0,0,0-.449-.764,1.116,1.116,0,0,0-.8-.284,1.144,1.144,0,0,0-1.116.653A4.6,4.6,0,0,0-52.968,200.608Zm2.88,0a7.247,7.247,0,0,0-.053-.9l-2.64,2.409a1.873,1.873,0,0,0,.454.808,1.069,1.069,0,0,0,.791.3,1.156,1.156,0,0,0,1.116-.648A4.5,4.5,0,0,0-50.088,200.608Z" transform="translate(72.052 -197.391)"/></g></g></g></svg>