<svg xmlns="http://www.w3.org/2000/svg" width="345" height="295" viewBox="0 0 345 295"><defs><style>.a{fill:#1a4797;}.b{fill:#3cb4e7;}</style></defs><g transform="translate(-790 -237)"><path class="a" d="M152.671,30.07a20,20,0,0,1,34.657,0L322.72,265.014A20,20,0,0,1,305.391,295H34.609A20,20,0,0,1,17.28,265.014Z" transform="translate(795 237)"/><path class="b" d="M152.671,30.07a20,20,0,0,1,34.657,0L322.72,265.014A20,20,0,0,1,305.391,295H34.609A20,20,0,0,1,17.28,265.014Z" transform="translate(790 237)"/></g></svg>